<?xml version="1.0" encoding="utf-8"?>
<!-- Generator: Adobe Illustrator 21.0.0, SVG Export Plug-In . SVG Version: 6.00 Build 0)  -->
<svg version="1.1" id="Layer_1" xmlns="http://www.w3.org/2000/svg" xmlns:xlink="http://www.w3.org/1999/xlink" x="0px" y="0px"
	 viewBox="0 0 3000 2000" style="enable-background:new 0 0 3000 2000;" xml:space="preserve">
<style type="text/css">
	.st0{fill:url(#SVGID_1_);}
	.st1{opacity:0.25;fill:#FFFFFF;enable-background:new    ;}
	.st2{opacity:0.2;fill:#FFFFFF;enable-background:new    ;}
</style>
<linearGradient id="SVGID_1_" gradientUnits="userSpaceOnUse" x1="1495" y1="-18" x2="1495" y2="2031" gradientTransform="matrix(1 0 0 -1 0 2000)">
	<stop  offset="0" style="stop-color:#E78200"/>
	<stop  offset="1" style="stop-color:#E83200"/>
</linearGradient>
<rect x="-38" y="-31" class="st0" width="3066" height="2049"/>
<path id="Color_Fill_1" class="st1" d="M-53,1148c79.2-64.1,227.9,59.4,288,25c859.3-491.8,767.7,18.2,1006-72
	c309.8-117.2,403.6,203.8,770,79c254.9-86.8,741.5-353.2,989-293c107.7,26.2,0,1300,0,1300H-2C-1.2,2186.4-61,1187.4-53,1148z"/>
<path id="Color_Fill_2" class="st2" d="M-2,840c457.7,14.7,551.1,278.5,820,261c253.5-16.5,434.7-181.6,689-165
	c328.1,21.4,413.1,72,800,84c597.5,18.5,599.3-62,694-102c172.9-73.1,0,1269,0,1269l-3006-6C-4.2,2180.4-10,879.4-2,840z"/>
</svg>
