<svg id="Layer_1" data-name="Layer 1" xmlns="http://www.w3.org/2000/svg" viewBox="0 0 65 65"><defs><style>.cls-1{fill:#2de1c2;}.cls-2{opacity:0.2;}.cls-3{fill:#231f20;}.cls-4{fill:#fff;}</style></defs><title>Artboard 122</title><g id="Layer_1-2" data-name="Layer 1"><circle class="cls-1" cx="32.5" cy="32.5" r="32"/><g class="cls-2"><path class="cls-3" d="M54.6,21.8c-.9-1.5-2.9-3.4-7.7-3.4a25.9,25.9,0,0,0-5.4.6c-2-6.2-5.2-10-9-10s-7,3.9-9,10a25.9,25.9,0,0,0-5.4-.6c-4.8,0-6.8,1.8-7.7,3.4-1.9,3.2-.1,7.9,4.2,12.7-4.3,4.8-6.1,9.5-4.2,12.8.9,1.5,2.9,3.3,7.7,3.3a25.9,25.9,0,0,0,5.4-.6c2,6.2,5.2,10,9,10s7-3.9,9-10a25.9,25.9,0,0,0,5.4.6c4.8,0,6.8-1.8,7.7-3.3,1.9-3.2.1-7.9-4.2-12.7C54.7,29.7,56.5,25,54.6,21.8Zm-7.7-.4c2.6,0,4.4.7,5.1,1.9s-.3,5.3-3.7,9.1a49.5,49.5,0,0,0-5-4.1,49.5,49.5,0,0,0-1-6.3A23,23,0,0,1,46.9,21.4ZM36.5,41.5l-4,2.1-4-2.1-3.9-2.4c-.1-1.5-.2-3-.2-4.6s.1-3.1.2-4.6l3.9-2.4,4-2.1,4,2.1,3.9,2.4c.1,1.5.2,3,.2,4.6s-.1,3.1-.2,4.6ZM40,43q-.3,1.8-.6,3.3l-3.2-1.1,2-1.1ZM28.9,45.2l-3.2,1.1q-.4-1.6-.6-3.3L27,44.1Zm-7.5-8.5-2.6-2.2,2.6-2.2c0,.7,0,1.5,0,2.2S21.4,36,21.4,36.7ZM25,26q.3-1.8.6-3.3l3.2,1.1-2,1.1Zm11.1-2.2,3.2-1.1q.4,1.6.6,3.3L38,24.9Zm7.5,8.5,2.6,2.2-2.6,2.2c0-.7,0-1.5,0-2.2S43.6,33,43.6,32.3ZM32.5,12c2.1,0,4.4,2.9,6,7.8a50.7,50.7,0,0,0-6,2.3,50.6,50.6,0,0,0-6-2.3C28.1,14.9,30.4,12,32.5,12ZM13,23.3c.7-1.2,2.5-1.9,5.1-1.9a22.9,22.9,0,0,1,4.6.5,49.6,49.6,0,0,0-1,6.3,49.4,49.4,0,0,0-5,4.1C13.3,28.5,11.9,25.1,13,23.3Zm5.1,24.3c-2.6,0-4.4-.7-5.1-1.8s.3-5.3,3.7-9.1a49.5,49.5,0,0,0,5,4.1,49.5,49.5,0,0,0,1,6.3A23,23,0,0,1,18.1,47.6ZM32.5,57c-2.1,0-4.4-2.9-6-7.8a50.7,50.7,0,0,0,6-2.3,50.6,50.6,0,0,0,6,2.3C36.9,54.1,34.6,57,32.5,57ZM52,45.8c-.7,1.2-2.5,1.8-5.1,1.8a22.9,22.9,0,0,1-4.6-.5,49.6,49.6,0,0,0,1-6.3,49.4,49.4,0,0,0,5-4.1C51.7,40.5,53.1,43.9,52,45.8Z"/><circle class="cls-3" cx="32.5" cy="34.5" r="3"/></g><path class="cls-4" d="M32.5,58c-6.3,0-11.1-11-11.1-25.5S26.2,7,32.5,7,43.6,18,43.6,32.5,38.8,58,32.5,58Zm0-48c-3.8,0-8.1,9.2-8.1,22.5S28.7,55,32.5,55s8.1-9.2,8.1-22.5S36.3,10,32.5,10Z"/><path class="cls-4" d="M18.1,48.6c-4.8,0-6.8-1.8-7.7-3.3C7.3,39.8,14.4,30.2,27,22.9c7-4.1,14.5-6.5,19.9-6.5s6.8,1.8,7.7,3.4c3.2,5.5-3.9,15.1-16.5,22.4C31,46.2,23.6,48.6,18.1,48.6ZM46.9,19.4c-4.9,0-11.8,2.3-18.4,6.1C17,32.1,11.1,40.4,13,43.8c.7,1.2,2.5,1.8,5.1,1.8,4.9,0,11.8-2.3,18.4-6.1C48,32.9,53.9,24.6,52,21.3,51.3,20.1,49.5,19.4,46.9,19.4Z"/><path class="cls-4" d="M18.1,48.6c-4.8,0-6.8-1.8-7.7-3.3C7.3,39.8,14.4,30.2,27,22.9c7-4.1,14.5-6.5,19.9-6.5s6.8,1.8,7.7,3.4c3.2,5.5-3.9,15.1-16.5,22.4C31,46.2,23.6,48.6,18.1,48.6ZM46.9,19.4c-4.9,0-11.8,2.3-18.4,6.1C17,32.1,11.1,40.4,13,43.8c.7,1.2,2.5,1.8,5.1,1.8,4.9,0,11.8-2.3,18.4-6.1C48,32.9,53.9,24.6,52,21.3,51.3,20.1,49.5,19.4,46.9,19.4Z"/><path class="cls-4" d="M46.9,48.6c-5.4,0-12.9-2.4-19.9-6.5C14.4,34.8,7.3,25.2,10.4,19.8c.9-1.5,2.9-3.4,7.7-3.4S31,18.8,38.1,22.9c12.6,7.3,19.7,16.9,16.5,22.4C53.7,46.8,51.6,48.6,46.9,48.6ZM18.1,19.4c-2.6,0-4.4.7-5.1,1.9-1.9,3.3,4,11.6,15.4,18.3,6.6,3.8,13.5,6.1,18.4,6.1,2.6,0,4.4-.7,5.1-1.8,1.9-3.3-4-11.6-15.4-18.3C30,21.7,23.1,19.4,18.1,19.4Z"/><circle class="cls-4" cx="32.5" cy="32.5" r="3"/></g></svg>