<?xml version="1.0" encoding="utf-8"?>
<!-- Generator: Adobe Illustrator 18.0.0, SVG Export Plug-In . SVG Version: 6.00 Build 0)  -->
<!DOCTYPE svg PUBLIC "-//W3C//DTD SVG 1.1//EN" "http://www.w3.org/Graphics/SVG/1.1/DTD/svg11.dtd">
<svg version="1.1" id="Layer_1" xmlns="http://www.w3.org/2000/svg" xmlns:xlink="http://www.w3.org/1999/xlink" x="0px" y="0px"
	 viewBox="0 0 8291.3 1790" enable-background="new 0 0 8291.3 1790" xml:space="preserve">
<g>
	<defs>
		<rect id="SVGID_1_" y="-256.7" width="8291.3" height="2267.7"/>
	</defs>
	<clipPath id="SVGID_2_">
		<use xlink:href="#SVGID_1_"  overflow="visible"/>
	</clipPath>
	<path clip-path="url(#SVGID_2_)" fill="#27509B" d="M5087.3,1294.3c-9.1,1.6-80.4,15.3-155.4,17.3
		c-133.7,3.7-250.2-49.8-251.3-146.3c-1.8-167.2,167.3-258.9,292-284.4c55.9-11.4,163.6-24,270.8,2.4l-62.3,149.4
		c-17.9-40.7-63.9-41.5-82.7-41.9c-45.5-1-83.2,11-111,23.8c-63,28.9-117.9,121.5-28.7,157.2c49.4,19.8,112.5,4,178.1-6.4
		L5087.3,1294.3z"/>
	<path clip-path="url(#SVGID_2_)" fill="#27509B" d="M7693.9,877.1l-107.4,291.8c1.5-29.4,7.3-145.4,10.9-212.3
		c1.5-27.5-4.5-48.6-17.6-62.5c-16.1-16.8-37.2-17-37.4-17H7303l-156.4,425.2h173.7l111-301.1l-13.1,301.1h291.3l156.6-425.2H7693.9
		z"/>
</g>
<polygon fill="#27509B" points="6798.2,1161.1 6596.4,1161.1 6700.9,877.1 6500.5,877.1 6343.9,1302.3 6746.2,1302.3 "/>
<polygon fill="#27509B" points="6347.6,988.5 6388.8,877.1 5959.5,877.1 5802.9,1302.3 6237.2,1302.3 6279.3,1187.6 6039.6,1187.6 
	6057.1,1140.4 6280.9,1140.4 6319.3,1035.7 6095.5,1035.7 6112.6,988.5 "/>
<polygon fill="#27509B" points="5686.6,1302.3 5843.3,877.1 5647.5,877.1 5590.7,1030.3 5487.1,1030.3 5543.5,877.1 5347,877.1 
	5190.9,1302.3 5386.7,1302.3 5440,1158.3 5543.9,1158.3 5490.5,1302.3 "/>
<polygon fill="#27509B" points="4531,1302.3 4687.5,877.1 4481.6,877.1 4324.9,1302.3 "/>
<g>
	<defs>
		<rect id="SVGID_3_" y="-256.7" width="8291.3" height="2267.7"/>
	</defs>
	<clipPath id="SVGID_4_">
		<use xlink:href="#SVGID_3_"  overflow="visible"/>
	</clipPath>
	<path clip-path="url(#SVGID_4_)" fill="#27509B" d="M4208.9,1302.3l156.5-425.2h-290.9l-150.4,228.4c0,0,9.6-119.5,12-148.3
		c1.8-21.9-0.9-80.1-54.3-80.1h-238.7l-156.6,425.2h186.7l113.4-307.5l-23.9,307.5h165.9l203.4-302.2L4021,1302.3H4208.9z"/>
</g>
<polygon fill="#27509B" points="7030.4,1302.3 7186.9,877.1 6981,877.1 6824.4,1302.3 "/>
<g>
	<defs>
		<rect id="SVGID_5_" y="-256.7" width="8291.3" height="2267.7"/>
	</defs>
	<clipPath id="SVGID_6_">
		<use xlink:href="#SVGID_5_"  overflow="visible"/>
	</clipPath>
	<path clip-path="url(#SVGID_6_)" d="M3766.8,532.2l-0.3-0.9c-8.6-24.8-31.8-55.7-70.1-64.5c-14-28.8-42.6-46.5-75.7-46.5
		c-7.8,0-14,1-17.8,1.8c-2.1,0.4-10.3,2.4-73.8,17.6l-93.4,22.3c8.2-23.5,7.1-47.9-3.3-68.9c-13-26.2-39-43.1-66.2-43.1
		c-9.7,0-19,2.1-27.6,6.2l-0.8,0.4c-3.6,1.8-10.2,5-176.6,113c-2.1,1.4-4.2,2.9-6.1,4.6c-80.9,70.5-110.3,111.8-117.3,122.6
		c-3.8,5.6-10.4,16.2-16.3,29.6c-4.3-2.2-8.6-4.2-12.9-6.1c-33.5-14.8-68.3-22.4-103.5-22.4c-63.8,0-108.9,24.8-120.9,32.3
		c-6.4,3.6-30,17.7-66.3,45.6c-14.3,11-27.5,24-39,38.7c-24.1,5.5-43.9,12.1-58.6,19.7c-18.5,9.5-37,24.1-56.8,39.6l-1.2,0.9
		c-3.4,2.6-6.8,5.3-10.2,8c-8.4,6.5-29.9,24.6-51.1,53.6l-2.4,0.5c-2.9,0.6-29.5,6.5-62.4,22.4c-8.2,4-16.5,8.4-24.5,13.3
		c-18.9,0.6-48.6,3.9-87.1,15.3l-1.6-0.3c-3.2-0.6-32.3-6.3-68.3-6.3c-15.3,0-29.9,1.1-43.2,3.1c-8.7,1.2-39.2,5.9-64.3,13.2
		c-12.1,3.5-43.3,14-78.3,36.5c-76-17.5-153.2-23.4-201.3-25.3c45.7-61.4,68.3-132.7,60.8-193.9c-14.2-114.9-92.1-182.8-120-203.6
		c-48.6-201.1-188.2-286.6-304.2-299.8c-22.8-26.5-66.5-42.8-115.3-42.8c-19.7,0-39.2,2.6-57.9,7.8
		c-61.7,17.1-110.5,64.2-120.1,115.3c-61.9,51.2-157.8,166.1-131.3,373c-23.3,31.5-68,111.5-37.5,232
		c21,82.9,72.4,142.6,149.2,173.8c-60,28.8-112.4,63.9-156.1,104.4c-2.6,2.5-5.3,4.9-7.8,7.4c-103.7,5.6-197.8,48.6-272.6,124.6
		c-79,80.4-119,177.3-138.7,244.4l-0.7,2.5h1716.5l0.2,0c11.4-1.8,34.4-8.2,56.3-16.9c29.4-11.7,51.5-24.9,67.4-40.5
		c35.1-4.7,62-13.9,80-20c0,0,5.3-1.8,7.1-2.4c31-10.1,101.9-47.4,128.1-98.9c52.9-20.3,92-47.1,116.4-79.7
		c46-7.9,81.7-28.1,101.1-39.1c45.9-26,78.2-51.5,98.8-78c16.9-21.8,27.3-38.5,35.2-56.8c15.7-8.2,33.3-18.9,56.4-34.4
		c80.3-53.9,97.4-151.9,99.1-163.1c0.4-2.4,0.7-4.7,1-7.1c4.1,0.3,8.1,0.4,12.2,0.4c80.8,0,186.1-50.7,242.9-78l0.9-0.4
		c8.8-4.2,16.3-7.9,20.1-9.4c19-7.9,57.7-28.8,97.8-55.8c50.9-34.2,86-66.1,104.3-94.8c3-4.7,5.3-9.7,7-14.9l33.1-20.5
		c9.6-5.9,17.6-14.9,22.8-25.5c9-5,16.7-9.6,19.1-11.1C3765.3,590.3,3776.4,561.1,3766.8,532.2"/>
	<path clip-path="url(#SVGID_6_)" fill="#FFFFFF" d="M882.5,1553.9H682c25.5-78.9,67-150.2,118.2-202.2
		c51.1-52,110.5-85.1,177.3-98.8c-24.1,32.7-43.8,67.9-59.1,105.5C883.3,1444.9,881.3,1520.7,882.5,1553.9"/>
	<path clip-path="url(#SVGID_6_)" fill="#FFFFFF" d="M969.2,1378.9c24.1-59.3,60.9-112.3,109.4-157.3c43.2-40.2,96-74.2,157.4-101.6
		c6-2.1,19.5-5.9,37-4.7c27.2,1.8,75.9,12.8,103.1,7.9c6-1,12.8-8.4-2.1-13.1c-4.4-1.4-42.5-17.3-37.5-36.2c0-0.2,0.2-0.8,0.2-0.8
		c1.4-5.1,8.3-11.1,18.2-11.9c43-4.1,68-8.9,79.7-10.5c7-1,12.5-2.5,13.7-6c1-2.9-1-4.3-8.7-3.9c-72.3,4.3-165.6-11.3-206.4-23.1
		c-68.3-21.6-111.7-67.5-129.2-136.8c-20.4-80.5,0.5-144.3,27.4-179.2c13.7-16.7,36.9-37.9,44-43.6c18.4-14.7,5.8-11.4-14.4-8.8
		c-14.6,1.9-18.7-4.5-19.7-10.4c-0.8-5.2-1.6-22.1-2.2-30.3c-1.9-61.7,8.9-117.3,32.4-165.9c25.2-52.3,60.8-87.2,87.8-108.1
		c11.3-8.2,27.9-19.8,39.8-26.1c18.8-9.9,8.3-16.5-15.4-11.4c0,0-7.4,2-5.4-4.4c0.4-1,0.7-2.1,1.2-3.1c1.7-3.8,3.9-7.3,6.2-10.7
		c13.2-17.1,35.7-33.7,62.4-41c50.1-13.9,98,0.4,108.7,16.1c1,2.5,0.8,4.9-2.8,6.3c-8.9,3.5-15,9.8-0.4,11.7
		c3.4,0.5,17.7,0,38.7,2.1c0.9,0.2,1.8,0.3,2.8,0.4c90,9.4,198.7,74.3,244.6,227c1.5,5.1,2.8,10.3,4.2,15.4
		c1.4,5.4,2.5,11.3,3.7,16.8c-10.8,2.4-14.4,9.6-3.8,13.2c6.9,2.4,14.9,7.2,21.2,11.5c0,0,0.1,0,0.1,0.1c0.1,0.1,0.3,0.2,0.5,0.3
		c1.1,0.8,2.2,1.6,3.3,2.4c2,1.5,6.1,4.6,9.8,7.5c38.9,31.8,78,85.2,86.4,153.7c7.2,58.4-25,122.5-63.3,166.1
		c-15,16.3-41.6,41.2-87.6,69.5c-10.3,6.3-0.9,14.2,50.4-4.2c4.6-1,11.6-4.2,15.9,0.1c4.9,4.9,6.1,27-11.9,47.8
		c-17.9,20.7,8.3,13.5,39.2-13.3c6-5.2,10.1-10.9,13-16.8c26.8,0,109.7,1.3,196.3,16.9c-18,19.1-33.2,40.5-45.3,63.9
		c-38.6,74.7-49.8,153.9-33.2,235.5c10.2,50.2,41.3,122.3,81,163c27.3,28,68.6,70.3,147.3,92.6c23.9,6.8,50.2,10.2,78.3,10.3l0,0
		H937.3C936.1,1527.9,936.8,1458.7,969.2,1378.9"/>
	<path clip-path="url(#SVGID_6_)" fill="#FFFFFF" d="M2321.7,1490.6c-7.3,1.2-37.7,8.3-75.3,8.3c-20.3,0-42.7-2.1-64.6-8.3
		c-62.5-17.7-94.4-48.8-122.9-78.1c-28.6-29.3-57.1-89.3-66.5-135.6c-9.4-46.3-14.2-117.4,28.2-199.3
		c42.4-81.9,121.1-112,144.6-118.8c23.5-6.9,55.7-11.3,55.7-11.3c2.6-0.4,5.2-0.7,7.8-1c-24.5,19.7-46.1,43.6-63.3,70.3
		c-25,38.7-40.5,82.8-44.7,127.5c-4.2,44.5,0.8,90.8,14.7,134c13.8,43.3,36.2,82.6,64.6,113.6c27.2,29.7,60.7,54.5,96.9,71.6
		c17.5,8.3,35.4,14.7,53.4,19.2C2336.8,1487.2,2325.8,1489.9,2321.7,1490.6"/>
	<path clip-path="url(#SVGID_6_)" fill="#FFFFFF" d="M2522.8,1413.1c-21.5,7.1-59.4,22.2-111.9,22.2c-1.6,0-3.2,0-4.8,0
		c-55-1-119.1-29.4-165.8-80.5c-46.8-51.1-72.3-129.2-65.1-205.4c7.2-76.2,53-139.8,108.5-175c12.8-8.1,26.2-14.3,39.3-18.9
		c5.6-2,11.1-3.8,16.4-5.4c-1,1.4-2,2.8-3,4.3c-56.8,84.2-52.8,191.3-25.1,255.1c14.4,33.2,31,61,50.8,84.8
		c26.1,31.6,57.6,55.7,93.4,71.7c33.1,14.8,68.1,22.2,103.9,22.2c3.8,0,7.6-0.1,11.4-0.3C2554,1399.5,2535.9,1408.8,2522.8,1413.1"
		/>
	<path clip-path="url(#SVGID_6_)" fill="#FFFFFF" d="M2636.1,1319.6c-21.3,7.4-47.4,13.7-76.5,13.7c-25.3,0-52.9-4.7-81.6-17.5
		c-61.7-27.5-95.4-80.5-116.2-128.2c-20.7-47.7-25.5-134.5,20.2-202.5c24.8-36.8,60.7-58.8,88.5-71.4
		c-18.3,53.4-26.6,136.4,32,235.1l0.4,0.7l0.4,0.7c29.6,46.7,68.1,82.8,114.4,107.2c27.4,14.4,57,24.2,87,29
		C2683.4,1301.2,2658.1,1311.9,2636.1,1319.6"/>
	<path clip-path="url(#SVGID_6_)" fill="#FFFFFF" d="M2856.8,1200.5c-24.9,14.1-59.7,32.9-103.8,34.2c-2,0.1-4,0.1-6,0.1
		c-65.7,0-145-31.5-197.2-114c-92.2-155.5,8.7-262.1,41.6-287.6c20.1-15.6,39.7-31.8,55.2-40.5c-7.3,20.5-10.1,36.4-11,41.7
		c-6.8,39.2-0.7,89.4,16.5,134.5c22.6,59.5,62.5,107.5,115.4,138.7c42.9,25.3,87.2,38.2,131.7,38.2c12.2,0,23.6-1,33.9-2.6
		C2912.3,1167.4,2878,1188.5,2856.8,1200.5"/>
	<path clip-path="url(#SVGID_6_)" fill="#FFFFFF" d="M3710.3,560.6c-5.4,3.4-12.5,7.5-19.2,11.1c-0.2-0.3-0.3-0.7-0.5-1
		c-9.5-15.9-22-25.7-37.3-29.3c-23.9-5.6-54,4-94.5,30.2c-59,38-150,59.5-150.9,59.7c-6.3,1.5-10.2,7.8-8.7,14.1
		c1.3,5.4,6.1,9.1,11.4,9.1c0.9,0,1.8-0.1,2.7-0.3c3.9-0.9,95.8-22.6,158.2-62.8c33.9-21.9,59.6-31,76.5-27
		c8.1,1.9,14.6,6.8,20.4,15.2c0,0,0,0,0,0c7.7,11.8,0.5,17.3-0.1,17.7c-0.5,0.3-29.7,18.3-41.6,25.7c-6-6.5-18.5-17.2-37.7-18.8
		c-21-1.8-42.7,7.8-64.6,28.4c-53.1,50.1-111,66.4-112,66.7c-6.2,1.7-9.9,8.1-8.2,14.3c1.4,5.2,6.1,8.7,11.3,8.7c1,0,2-0.1,3.1-0.4
		c2.6-0.7,64.2-17.8,122-72.3c16.6-15.7,32.7-23.3,46.6-22.1c13.5,1.2,21.6,10.2,23.7,12.9c0.5,0.8,3,4.9,0.3,9.1
		c-32.6,51.2-145.4,116.4-177.6,129.9c-24.4,10.3-120.1,61.9-199.1,78.5c-8.5,2.2-17.3,3.5-26.2,4.2c-0.9,0.1-1.8,0.1-2.7,0.2
		c-11.5,0.4-64.6,1.4-80.4-14.6c-22.8-23.1-31.1-6.6-24.1,23.3c-25,15.2-62.5,38-72.4,44.1c-25.9,15.8-59.8-1.9-65.6-1.9
		c-14-0.3,19.1,41.3,46.2,45.2c29.4,4.2,84.2-30.6,84.2-30.6l20.8-13.6c0,0,0,0.1,0,0.1c0,0-12.2,79.8-71.4,119.4
		c-36.6,24.6-52,32.1-66,38.4c-8.9,4.1-37.1,18.5-77.9,18.5c-28.9,0-64.3-7.2-103.7-30.5c-95.5-56.4-114.5-167.1-105.6-217
		c0,0,10.6-73.3,67.1-116.7c37.7-28.9,60.1-41.4,60.1-41.4s35.1-23.3,88.1-23.3c22.7,0,48.8,4.3,76.7,16.5
		c-8.3,5.9-15.5,12.2-19.5,18.2c-10.9,16.3-25.8,53.9-15.5,53.7c7.5-0.1,12.5-18.4,37.8-31.6c12.4-6.5,71.5-41.1,71.5-41.1
		s2.6-9.1,5.1-14.6c0,0,7-15.7,22.4-37.6c1-1.5,3.1-4.5,6.5-9c8.8-11.8,19.8-24.8,33.2-38c0,0,0,0,0,0c16.1-16.9,38-38.1,67.2-63.5
		c0,0,163.6-106.1,171.1-109.8c1.4-0.7,2.9-1,4.5-1c14.1,0,33.8,24.5,9.2,56.9c-20,26.4-42.9,43.8-61.2,57.9
		c-5.1,3.8-12.5,8.8-17.6,10.6c-24.7,8.9-57.7,28.2-62.6,32c-5.7,4.4-5.3,11.4,1.4,8.4c21.5-9.3,56.5-18.3,62.9-19.9
		c37.2-8.2,310.5-73.9,315.5-75c1.3-0.3,3.7-0.6,6.8-0.6c9.4,0,24.6,3.4,29.5,23.1c0.2,0.7,0.3,1.3,0.4,1.9L3400,574
		c-6.2,1.9-9.7,8.4-7.8,14.6c1.4,4.3,4.9,7.3,9,8.1c1.8,0.4,3.8,0.3,5.6-0.3L3630,530c4.5-1,13-3.2,28.8-8.6l2.5-0.8
		c4.8-1.4,9.4-2.1,13.6-2.1c22.9,0,36.4,18.6,40.5,30.7C3717.1,554.3,3715.1,557.7,3710.3,560.6"/>
	<path clip-path="url(#SVGID_6_)" d="M1567.1,496.8c-0.1,15.2,2.3,31.3,6.1,45.9c4.6,14.8,10.1,29.4,19.3,42
		c7.8,10.8,17.1,21.4,30.1,25.6c-0.1,0-0.2,0-0.2,0c0,0,0.3,0.1,1.2,0.4c0.8,0.2,1.1,0.3,1.1,0.3c0,0,0,0-0.1,0
		c3.1,0.8,6.2,1.1,9.3,1.1c5.1,0,10.3-0.9,16.5-2.2c6.3-1.4,12.9-2.7,18.6-5.8c7-3.8,11-13,13.6-20.1c3-8.1,4.5-16.6,5-25.2
		c0.9-15.2-1.5-30.1-6-44.6c0.1,0.6,0.3,1.2,0.4,1.9c8.5,38.3-3.1,73.5-25.7,78.6c-22.8,5.2-48-21.6-56.4-59.9
		c-2.3-10.3-3.1-20.4-2.7-29.7c4.7,6.8,12,10.4,18.8,8.5c9.5-2.5,14.4-14.5,11.2-26.6c-2.8-10.7-11.1-17.9-19.4-17.8
		c4.7-6.8,10.7-11.4,17.8-13c14.7-3.4,30.5,6.7,42.1,24.6c-2.9-5.3-6.1-10.4-9.8-15.3c-8.9-11.9-20.8-23.3-35.8-26.4
		c-2.5-0.5-5.1-0.8-7.7-0.8c-13.2,0-26.7,6.4-35,16.3C1569.9,466.1,1567.2,482.2,1567.1,496.8 M1558.5,543.3
		c-4.5-16.4-10.1-42-8.7-66.3c1.9-35,19.8-54.7,41.2-61.4c26.4-8.3,54.3,4.8,70.2,25.2c8.9,11.4,18.3,27.8,25.1,44.7
		c2.6,5.7,5,11.7,7.2,18.2c6.7,19.4,9.6,38.1,8.6,55.8c-0.6,10.6-2.6,20.5-5.9,29.4c-3.6,9.8-9.2,21.8-20.3,27.8
		c-7.4,4-15.2,5.6-22.1,7.1l-0.3,0.1c-6.1,1.3-12.7,2.5-19.5,2.5c-4.2,0-8.2-0.4-12.2-1.4c-0.6-0.1-1.2-0.3-1.9-0.5l0,0
		c-0.1,0-0.2,0-0.3-0.1l0,0c-0.3-0.1-0.6-0.2-0.8-0.3l-0.2-0.1l-0.3-0.1c-17.4-5.6-28.7-18.8-37.4-30.9
		c-7.6-10.5-12.7-21.7-16.7-32.4l-0.1-0.2c0,0-0.9-2.3-2.2-6.4c-0.8-2.5-1.6-4.9-2.3-7.3l-0.1-0.3l-0.1-0.3
		C1559,545.4,1558.8,544.3,1558.5,543.3 M1623.7,610.6c0.3,0.1,0.7,0.2,1,0.3c-0.3-0.1-1.6-0.5-2-0.6
		C1623.1,610.4,1623.4,610.5,1623.7,610.6 M1364.6,621.2c9.4,17.8,21.2,31.4,33.2,38.5c5.9,3.5,12.4,5.2,19.6,5.2
		c6,0,12.7-1.1,20.6-3.4l0.4-0.1c3.4-0.9,13.6-3.8,19.1-6.2c10.1-4.3,18.6-18.6,22.6-38.2c1.5-7.2,2.2-14.8,2.4-22.4
		c-2.6,23.9-14.1,42.5-31.5,46.5c-25.3,6-53.5-21.1-62.9-60.4c-2.5-10.6-3.4-21-2.9-30.7c4.9,5.9,11.9,8.9,18.4,7
		c9.6-2.6,14.6-14.7,11.2-26.7c-2.8-9.7-10.1-16.5-17.9-17.5c5.2-7.3,12.1-12.3,20.2-14.2c18.5-4.4,38.4,8.9,51.6,31.6
		c-0.5-1.2-1-2.4-1.5-3.5c-12.7-25.3-34.7-51.5-76.6-40.3c-55.1,14.8-42.6,86.9-36.6,109.2C1356.9,604.6,1360.3,613.1,1364.6,621.2
		 M1350.5,628.7c-9.2-17.3-14.6-35.5-17.4-54.9c-2.7-18.8-3.8-38.4-0.4-57.2c3.3-18.4,11.7-35.5,26.8-46.5
		c12.4-9.1,28.7-14.6,44.5-14.6c4.2,0,8.4,0.4,12.4,1.2c39.8,8.2,58.4,40.7,74.2,86.5c17.3,50.2,5.3,112.8-26.8,126.6
		c-7.9,3.4-21.3,6.9-21.3,6.9c-8.4,2.4-16.7,4-25,4c-9.4,0-18.7-2.1-27.7-7.4C1372.9,663.5,1359.7,645.9,1350.5,628.7 M1670.2,750.3
		c-50.3,27.1-107.5,42-163.9,49.7c15.3,7.2,31,12.9,48,14.2c15.4,1.2,30.7-1.2,45.4-5.7c15-4.6,29.4-11.4,41.5-21.5
		C1653.4,777,1662.4,764.1,1670.2,750.3 M1745.6,701.7c-3.2,0.6-4.5-3.5-6.3-8.3c-9.9,12.8-30.3,32.8-33.1,36.3
		c-4.6,6-8.4,12.6-12,19.3c-6.1,11.1-12,22.3-19.4,32.6c-10,14-22.7,25.9-37.4,34.8c-28,16.9-63.3,24.9-95.7,19.6
		c-17.1-2.8-33.3-9.2-48.8-16.7c-12.6-6.1-25.8-14.1-40.1-14.8c-15.8,0.5-32,0.7-47.7-1.2c-5.4-0.6-10.1-2.7-11.9-8.4
		c-2.4-7.5,2.8-15.2,10.6-15.7l0,0c2.6,0,5.1,0.5,7.7,0.7c5.1,0.3,10.1,0.7,15.2,0.8c57,1.8,114.7-7.3,169.1-24
		c33.4-10.3,65.9-24.4,94.6-44.5c11.8-8.3,23.1-17.5,32.8-28.3c1.4-1.6,2.8-3.7,4.4-5.5c-1.1-0.6-2.1-1.2-2.9-1.5
		c-2.8-1-3.2-6.4,2.3-7.8c5.5-1.5,12.9,1.4,15.5,4.3c2.6,2.9,5.6,7.8,6.4,13.7C1749.8,693.3,1749.2,701,1745.6,701.7 M1402.2,769.2
		c-14.7,10.1-18.3,18-20.4,22.8c-2.1,4.8-1.8,10-1.1,12.5c0.7,2.5-0.1,5-2.4,6h0h-0.1c-0.1,0.1-0.2,0.1-0.3,0.1
		c-2.3,0.9-4.2,0.5-5.2-0.1c-1.3-0.6-2.3-1.7-2.8-3.1c-4.2-9.6,0.1-29.9,10.9-39.6c3.9-3.7,9.7-7.8,14.4-9.7c1.8-0.8,7.3-2.9,10,1.1
		C1407.9,763.4,1404.7,767.4,1402.2,769.2"/>
</g>
<polygon fill="#27509B" points="425.2,1585.8 4426.5,1585.8 4465.7,1479.5 464.3,1479.5 "/>
<g>
	<defs>
		<rect id="SVGID_7_" y="-256.7" width="8291.3" height="2267.7"/>
	</defs>
	<clipPath id="SVGID_8_">
		<use xlink:href="#SVGID_7_"  overflow="visible"/>
	</clipPath>
	<path clip-path="url(#SVGID_8_)" fill="#004F9F" d="M7625,1516.9c-13.4,37.4-31.9,50-68.9,50h-39.3l37.8-104.1h39.2
		C7626.2,1462.8,7636.8,1483.8,7625,1516.9 M7595.3,1444.1h-58.8l-51.6,141.7h70.5c50.8,0,77.3-20.7,93.5-65.2
		C7663.8,1479.9,7648.7,1444.1,7595.3,1444.1 M7453.3,1495.1c-6.5,18.9-19.3,23-51.2,23h-33.8l20.3-55.5h31.3
		C7455.1,1462.6,7461.6,1471.6,7453.3,1495.1 M7425.8,1444.1h-55.5l-51.6,141.7h25l17.9-49.2h43.9l17.7,49.2h25.6l-20.5-52.4
		c22.2-2.2,40.5-11.2,49.2-35C7489.5,1465.9,7476,1444.1,7425.8,1444.1 M7208.6,1531.9l55.9-75.4l4.1,75.4H7208.6z M7259.8,1444.1
		c-7.3,0-12.2,2.4-17,9.1L7142,1585.8h27l26-35.2h75l2,35.2h23.8l-9.4-141.7H7259.8z M7165.2,1444.1l-82.5,124.8l3-124.8h-35
		l-82.1,125.6l1.4-125.6h-24.4v141.7h24.2c5.9,0,11.8-2,15.9-9.1l76.4-114.8l-2,123.8h26.8c5.5,0,11-2.4,15.5-9.1l89.8-132.7H7165.2
		z M6886.1,1495.1c-6.5,18.9-19.3,23-51.2,23h-33.9l20.3-55.5h31.3C6887.9,1462.6,6894.3,1471.6,6886.1,1495.1 M6858.5,1444.1H6803
		l-51.6,141.7h25l17.9-49.2h43.9l17.7,49.2h25.6l-20.5-52.4c22.2-2.2,40.6-11.2,49.2-35C6922.3,1465.9,6908.7,1444.1,6858.5,1444.1
		 M6716.6,1517.3c-14.4,39.2-34.8,51.8-67.5,51.8c-40.4,0-51-21-38-56.7c14.2-39,34.6-51.6,67.1-51.6
		C6718.7,1460.8,6729.3,1481.9,6716.6,1517.3 M6680.1,1441.7c-48.4,0-76.4,21.7-93.1,67.5c-15.8,42.3-2.4,78.9,60.4,78.9
		c48.2,0,76.1-21.7,93.1-67.5C6756.1,1478.3,6742.7,1441.7,6680.1,1441.7 M6494.7,1462.8h92.7l6.9-18.7h-117.7l-51.6,141.7h25
		l19.5-53.7h83.8l6.9-18.9h-83.8L6494.7,1462.8z M6288.5,1507.1l-29.7-63h-24.4l37.4,80.1l-22.4,61.6h25l21.8-59.8l98.2-81.9h-29.9
		L6288.5,1507.1z M6119.4,1531.9l55.9-75.4l4.1,75.4H6119.4z M6170.6,1444.1c-7.3,0-12.2,2.4-16.9,9.1l-100.9,132.7h27l26-35.2h75
		l2,35.2h23.8l-9.4-141.7H6170.6z M6076,1444.1l-82.5,124.8l3-124.8h-35l-82.1,125.6l1.4-125.6h-24.4v141.7h24.2
		c5.9,0,11.8-2,15.9-9.1l76.4-114.8l-2,123.8h26.8c5.5,0,11-2.4,15.6-9.1l89.7-132.7H6076z M5735.2,1495.1
		c-6.5,18.9-19.3,23-51.2,23h-33.8l20.3-55.5h31.3C5737,1462.6,5743.5,1471.6,5735.2,1495.1 M5707.7,1444.1h-55.5l-51.5,141.7h25
		l17.9-49.2h43.9l17.7,49.2h25.6l-20.4-52.4c22.2-2.2,40.5-11.2,49.2-35C5771.4,1465.9,5757.8,1444.1,5707.7,1444.1 M5519,1462.6
		h92.5l6.9-18.5h-117.7l-51.6,141.7h117.7l6.7-18.5h-92.7l15.7-43.1h83l6.9-18.5h-83.2L5519,1462.6z M5472.5,1444.1h-136.4
		l-7.1,19.1h56l-44.6,122.6h25l44.7-122.6h55.3L5472.5,1444.1z M5167.8,1463.2h56.1l-44.7,122.6h25l44.7-122.6h55.3l7.1-19.1h-136.4
		L5167.8,1463.2z M4983.1,1585.8h117.7l6.7-18.5h-92.7l15.7-43.1h83l6.9-18.5h-83.2l15.8-43.1h92.5l6.9-18.5h-117.7L4983.1,1585.8z
		 M4949.6,1485.8c-5.5,16.3-21,20.3-46.4,20.3h-40.3l15.9-43.5h45.3C4947.8,1462.6,4955.7,1468.9,4949.6,1485.8 M4935.4,1549.8
		c-4.9,13.4-15.5,17.5-41.1,17.5h-53.7l15.9-43.9h48.6C4931.5,1523.4,4941.5,1532.4,4935.4,1549.8 M4933.6,1444.1h-73.2l-51.6,141.7
		h91.7c27.1,0,49-7.1,57.8-30.3c6.9-18.7,0-34.8-19.5-40.1c17.3-3.7,29.7-12.6,35.4-28C4983.4,1462.4,4970.8,1444.1,4933.6,1444.1
		 M4639.7,1531.9l55.9-75.4l4.1,75.4H4639.7z M4690.9,1444.1c-7.3,0-12.2,2.4-16.9,9.1l-101,132.7h27l26-35.2h75l2,35.2h23.8
		l-9.4-141.7H4690.9z"/>
</g>
</svg>
