<?xml version="1.0" encoding="utf-8"?>
<!-- Generator: Adobe Illustrator 21.0.2, SVG Export Plug-In . SVG Version: 6.00 Build 0)  -->
<svg version="1.1" id="Calque_1" xmlns="http://www.w3.org/2000/svg" xmlns:xlink="http://www.w3.org/1999/xlink" x="0px" y="0px"
	 viewBox="0 0 190.3 77" style="enable-background:new 0 0 190.3 77;" xml:space="preserve">
<style type="text/css">
	.st0{fill:#263068;}
	.st1{fill:#E6332A;}
</style>
<g>
	<path class="st0" d="M22.2,24.2h2.6v-5.6c0-0.7-0.6-1.3-1.3-1.3c-0.7,0-1.3,0.6-1.3,1.3V24.2z"/>
	<path class="st0" d="M16.8,24.2h2.6v-5.6c0-0.7-0.6-1.3-1.3-1.3c-0.7,0-1.3,0.6-1.3,1.3V24.2z"/>
	<path class="st0" d="M27.6,24.2h2.6v-5.6c0-0.7-0.6-1.3-1.3-1.3c-0.7,0-1.3,0.6-1.3,1.3V24.2z"/>
	<path class="st0" d="M24.1,3.6c1.7,0.3,2.3,1.8,2.3,2.8v2.2H28v1.2c4.1,1.9,7,6.2,7,10.6c0,0,0,0.1,0,0.1v3.8h9.4v-3.8
		c-0.2-12.4-9-19.9-20.6-20.1L24.1,3.6z"/>
	<path class="st0" d="M22.4,6.4v2.2h2.3V6.4c0-0.6-0.5-1.1-1.1-1.1C22.9,5.2,22.4,5.8,22.4,6.4"/>
	<path class="st0" d="M25.2,30.3c-9.7-2.5-13.4-4.6-13.4-10.8c0-4.4,3-8.2,7.1-9.9v-1h1.6V6.5c0-1.1,0.7-2.6,2.4-2.8l0.3-3.2
		C11.5,0.5,1.6,8.6,2.1,19.5c0.5,12.2,14,15.7,21.2,17.2c5.7,1.2,19.4,4.4,22.8,14.1C46,50.8,47.3,34.8,25.2,30.3"/>
	<path class="st0" d="M22,47.3c9.8,3,12.3,6.6,12.3,11.8c0,7.9-6.1,11.1-13.8,11.1c-7.3,0-13.6-3.4-17.8-7.8c0,0-1.6,3.2-1.6,3.2
		c3.1,5.8,11.8,11.1,21.4,11.1h0c0,0,0,0,0,0v0C35,76.8,45.6,71,45.6,59.3c0-12.5-13.7-17.5-21.3-19.1c-6-1.3-21-5.3-23.7-13.7
		C0.6,26.5-2.4,41.1,22,47.3"/>
	<path class="st1" d="M59.7,31.3c0,0,1.7,1.6,3.9,1.6c1.2,0,2.2-0.6,2.2-1.8c0-2.7-7.3-2.2-7.3-6.8c0-2.5,2.2-4.3,5.2-4.3
		c3,0,4.6,1.6,4.6,1.6l-1.2,2.2c0,0-1.5-1.3-3.4-1.3c-1.3,0-2.3,0.7-2.3,1.8c0,2.6,7.3,2,7.3,6.7c0,2.4-1.9,4.3-5.1,4.3
		c-3.4,0-5.3-2-5.3-2L59.7,31.3z"/>
	<path class="st1" d="M80.5,32.9c2.8,0,5.1-2.3,5.1-5.3c0-2.9-2.3-5.1-5.1-5.1c-2.8,0-5.1,2.2-5.1,5.1
		C75.4,30.7,77.6,32.9,80.5,32.9 M80.5,20.1c4.5,0,8,3.3,8,7.6c0,4.4-3.4,7.8-8,7.8c-4.5,0-8-3.4-8-7.8
		C72.5,23.4,75.9,20.1,80.5,20.1"/>
	<path class="st1" d="M98.3,27.3c1.5,0,2.4-0.9,2.4-2.3c0-1.4-0.6-2.3-2.8-2.3h-2.1v4.6H98.3z M93,20.3h5c1.7,0,2.4,0.1,3.1,0.4
		c1.5,0.7,2.5,2.1,2.5,4.1c0,1.8-1,3.4-2.6,4.1v0c0,0,0.2,0.2,0.5,0.7l3.2,5.5h-3.1l-3.1-5.5h-2.7v5.5H93V20.3z"/>
	<path class="st1" d="M114.5,32.8c1.4,0,2.2-0.9,2.2-2.2c0-1.2-0.8-2.1-2.2-2.1h-3v4.3H114.5z M114.2,26.4c1.2,0,1.9-0.8,1.9-1.9
		c0-1.1-0.7-1.8-2-1.8h-2.7v3.7H114.2z M108.7,20.3h5.5c2.8,0,4.8,1.4,4.8,3.8c0,1.4-0.7,2.6-1.9,3.2v0c1.7,0.5,2.5,2,2.5,3.5
		c0,3-2.5,4.3-5.3,4.3h-5.6V20.3z"/>
	<path class="st1" d="M131.2,32.9c2.8,0,5.1-2.3,5.1-5.3c0-2.9-2.3-5.1-5.1-5.1c-2.8,0-5.1,2.2-5.1,5.1
		C126.1,30.7,128.4,32.9,131.2,32.9 M131.2,20.1c4.5,0,8,3.3,8,7.6c0,4.4-3.4,7.8-8,7.8c-4.5,0-8-3.4-8-7.8
		C123.2,23.4,126.7,20.1,131.2,20.1"/>
	<path class="st1" d="M144,20.3h2.8l5.9,8.6c0.6,0.9,1.3,2.3,1.3,2.3h0c0,0-0.2-1.4-0.2-2.3v-8.6h2.8v14.8h-2.8l-5.9-8.5
		c-0.6-0.9-1.3-2.3-1.3-2.3h0c0,0,0.2,1.4,0.2,2.3v8.5H144V20.3z"/>
	<path class="st1" d="M162.2,20.3h2.8l5.9,8.6c0.6,0.9,1.3,2.3,1.3,2.3h0c0,0-0.2-1.4-0.2-2.3v-8.6h2.8v14.8H172l-5.9-8.5
		c-0.6-0.9-1.3-2.3-1.3-2.3h0c0,0,0.2,1.4,0.2,2.3v8.5h-2.8V20.3z"/>
	<polygon class="st1" points="180.4,20.3 180.4,35.2 190,35.2 190,32.8 183.2,32.8 183.2,28.8 188.4,28.8 188.4,26.5 183.2,26.5 
		183.2,22.6 189.7,22.6 189.7,20.3 	"/>
	<path class="st1" d="M58.4,41.7h2.8v9.6c0,2,1.4,3.1,3.5,3.1c2.1,0,3.5-1.1,3.5-3.2v-9.6H71v9.6c0,3.4-2.5,5.6-6.3,5.6
		c-3.8,0-6.3-2.3-6.3-5.6V41.7z"/>
	<path class="st1" d="M75.7,41.8h2.8l5.9,8.6c0.6,0.9,1.3,2.3,1.3,2.3h0c0,0-0.2-1.4-0.2-2.3v-8.6h2.8v14.8h-2.8l-5.9-8.5
		c-0.6-0.9-1.3-2.3-1.3-2.3h0c0,0,0.2,1.4,0.2,2.3v8.5h-2.8V41.8z"/>
	<rect x="93.3" y="41.8" class="st1" width="2.8" height="14.8"/>
	<path class="st1" d="M99.2,41.8h3l3.4,9.7c0.3,0.9,0.6,2.2,0.6,2.2h0.1c0,0,0.3-1.3,0.6-2.2l3.4-9.7h3l-5.6,14.8h-2.8L99.2,41.8z"
		/>
	<polygon class="st1" points="116.3,41.8 125.5,41.8 125.5,44.1 119.1,44.1 119.1,48 124.3,48 124.3,50.3 119.1,50.3 119.1,54.3 
		125.9,54.3 125.9,56.7 116.3,56.7 	"/>
	<path class="st1" d="M135.2,48.8c1.5,0,2.4-0.9,2.4-2.3c0-1.4-0.6-2.3-2.8-2.3h-2.1v4.6H135.2z M129.9,41.8h5
		c1.7,0,2.4,0.1,3.1,0.4c1.5,0.7,2.5,2.1,2.5,4.1c0,1.8-1,3.4-2.6,4.1v0c0,0,0.2,0.2,0.5,0.7l3.2,5.5h-3.1l-3.1-5.5h-2.7v5.5h-2.8
		V41.8z"/>
	<path class="st1" d="M145.6,52.9c0,0,1.7,1.6,3.9,1.6c1.2,0,2.2-0.6,2.2-1.8c0-2.7-7.3-2.2-7.3-6.8c0-2.5,2.2-4.3,5.2-4.3
		c3,0,4.6,1.6,4.6,1.6l-1.2,2.2c0,0-1.5-1.3-3.4-1.3c-1.3,0-2.3,0.7-2.3,1.8c0,2.6,7.3,2,7.3,6.7c0,2.4-1.9,4.3-5.1,4.3
		c-3.4,0-5.3-2-5.3-2L145.6,52.9z"/>
	<rect x="158.4" y="41.8" class="st1" width="2.8" height="14.8"/>
	<polygon class="st1" points="169.4,44.1 164.4,44.1 164.4,41.8 177.3,41.8 177.3,44.1 172.2,44.1 172.2,56.7 169.4,56.7 	"/>
	<path class="st1" d="M180.5,41.8v14.8h9.6v-2.3h-6.8v-4h5.2V48h-5.2v-3.9h6.4v-2.3H180.5z M185.8,38l-1.7,2.8h2.2l2.3-2.8H185.8z"
		/>
</g>
</svg>
