<?xml version="1.0" encoding="UTF-8" standalone="no"?>
<!-- Created with Inkscape (http://www.inkscape.org/) -->

<svg
   xmlns:dc="http://purl.org/dc/elements/1.1/"
   xmlns:cc="http://creativecommons.org/ns#"
   xmlns:rdf="http://www.w3.org/1999/02/22-rdf-syntax-ns#"
   xmlns:svg="http://www.w3.org/2000/svg"
   xmlns="http://www.w3.org/2000/svg"
   xmlns:sodipodi="http://sodipodi.sourceforge.net/DTD/sodipodi-0.dtd"
   xmlns:inkscape="http://www.inkscape.org/namespaces/inkscape"
   width="105.0925mm"
   height="17.4625mm"
   viewBox="0 0 105.0925 17.4625"
   version="1.1"
   id="svg8"
   inkscape:version="0.92.3 (2405546, 2018-03-11)"
   sodipodi:docname="FreeFem_Days_Blanc.svg">
  <defs
     id="defs2" />
  <sodipodi:namedview
     id="base"
     pagecolor="#ffffff"
     bordercolor="#666666"
     borderopacity="1.0"
     inkscape:pageopacity="0.0"
     inkscape:pageshadow="2"
     inkscape:zoom="0.35"
     inkscape:cx="47.171427"
     inkscape:cy="-98.428574"
     inkscape:document-units="mm"
     inkscape:current-layer="layer1"
     showgrid="false"
     fit-margin-top="0"
     fit-margin-left="0"
     fit-margin-right="0"
     fit-margin-bottom="0"
     inkscape:window-width="1920"
     inkscape:window-height="1017"
     inkscape:window-x="-8"
     inkscape:window-y="488"
     inkscape:window-maximized="1" />
  <metadata
     id="metadata5">
    <rdf:RDF>
      <cc:Work
         rdf:about="">
        <dc:format>image/svg+xml</dc:format>
        <dc:type
           rdf:resource="http://purl.org/dc/dcmitype/StillImage" />
        <dc:title></dc:title>
      </cc:Work>
    </rdf:RDF>
  </metadata>
  <g
     inkscape:label="Calque 1"
     inkscape:groupmode="layer"
     id="layer1"
     transform="translate(-93.35256,-105.32827)">
    <g
       id="g104"
       transform="matrix(0.26458333,0,0,0.26458333,38.769019,37.118691)">
      <path
         id="path12"
         d="m 233.3,281.7 h -15.8 v 14.5 h -11.2 v -38.4 h 28.3 v 8.6 h -17.1 v 6.8 h 15.8 z"
         class="st0"
         inkscape:connector-curvature="0"
         style="fill:#ffffff" />
      <path
         id="path14"
         d="m 253.6,283.5 h -4.4 v 12.7 H 238 v -38.4 h 17 c 5,0 8.9,1 11.7,3 2.8,1.9 4.4,5.1 4.2,8.4 0.1,2.4 -0.5,4.8 -1.6,6.9 -1.1,1.8 -2.9,3.3 -5.4,4.5 l 8.4,15.3 v 0.4 h -12 z m -4.4,-8.6 h 5.8 c 3.2,0 4.8,-1.5 4.8,-4.4 0,-2.8 -1.7,-4.2 -5.2,-4.2 h -5.5 z"
         class="st0"
         inkscape:connector-curvature="0"
         style="fill:#ffffff" />
      <path
         id="path16"
         d="m 302.9,280.7 h -15.1 v 7 h 17.9 v 8.6 h -29.1 v -38.4 h 29.3 v 8.6 h -18.1 v 5.7 h 15.1 z"
         class="st0"
         inkscape:connector-curvature="0"
         style="fill:#ffffff" />
      <path
         id="path18"
         d="m 335.3,280.7 h -15.1 v 7 h 17.9 v 8.6 H 309 v -38.4 h 29.3 v 8.6 h -18.1 v 5.7 h 15.1 z"
         class="st0"
         inkscape:connector-curvature="0"
         style="fill:#ffffff" />
      <path
         id="path20"
         d="m 368.4,281.7 h -15.8 v 14.5 h -11.2 v -38.4 h 28.3 v 8.6 h -17.1 v 6.8 h 15.8 z"
         class="st0"
         inkscape:connector-curvature="0"
         style="fill:#ffffff" />
      <path
         id="path22"
         d="m 399.4,280.7 h -15.1 v 7 h 17.9 v 8.6 h -29.1 v -38.4 h 29.3 v 8.6 h -18.1 v 5.7 h 15.1 z"
         class="st0"
         inkscape:connector-curvature="0"
         style="fill:#ffffff" />
      <path
         id="path24"
         d="m 472.8,295.7 v -37.4 h 11.4 c 3.3,0 6.2,0.7 8.9,2.1 2.6,1.4 4.6,3.4 6.1,6 1.5,2.6 2.2,5.5 2.3,8.7 v 3.5 c 0,3.3 -0.7,6.3 -2.1,8.8 -1.4,2.6 -3.4,4.6 -6.1,6 -2.6,1.4 -5.6,2.2 -9,2.2 z m 3.8,-34 v 30.8 h 7.3 c 4.1,0 7.5,-1.2 9.9,-3.7 2.5,-2.5 3.7,-5.9 3.7,-10.3 v -3 c 0,-4.2 -1.2,-7.5 -3.6,-10 -2.4,-2.5 -5.7,-3.7 -9.9,-3.7 z"
         class="st0"
         inkscape:connector-curvature="0"
         style="fill:#ffffff" />
      <path
         id="path26"
         d="m 531.6,285.7 h -18.1 l -4,10 h -4 l 15.2,-37.4 h 3.7 l 15.1,37.4 h -3.9 z m -16.9,-3.2 h 15.5 L 522.5,263 Z"
         class="st0"
         inkscape:connector-curvature="0"
         style="fill:#ffffff" />
      <path
         id="path28"
         d="M 555.1,278.8 567,258.4 h 4.4 L 557,282.2 v 13.6 h -3.8 V 282 l -14.3,-23.6 h 4.4 z"
         class="st0"
         inkscape:connector-curvature="0"
         style="fill:#ffffff" />
      <path
         id="path30"
         d="m 599.7,286.5 c 0,-1.9 -0.7,-3.4 -2.1,-4.6 -1.4,-1.2 -4,-2.2 -7.9,-3.2 -3.8,-1 -6.7,-2 -8.5,-2.9 -1.8,-1 -3.2,-2.1 -4.1,-3.4 -0.9,-1.3 -1.3,-2.9 -1.3,-4.7 0,-2.9 1.3,-5.2 3.8,-7.1 2.5,-1.8 5.8,-2.7 9.8,-2.7 4.1,0 7.4,1.1 10,3.2 2.6,2.1 3.9,4.8 3.9,8.1 h -3.8 c 0,-2.4 -0.9,-4.4 -2.8,-5.8 -1.8,-1.5 -4.3,-2.2 -7.3,-2.2 -3,0 -5.3,0.6 -7.1,1.8 -1.8,1.2 -2.7,2.8 -2.7,4.7 0,1.8 0.8,3.2 2.3,4.3 1.6,1.1 4.2,2.1 7.8,3.1 3.6,0.9 6.4,1.9 8.2,2.9 1.8,1 3.2,2.2 4.2,3.6 0.9,1.4 1.4,3 1.4,4.9 0,3 -1.3,5.4 -3.9,7.2 -2.6,1.8 -5.9,2.7 -10.1,2.7 -2.8,0 -5.4,-0.5 -7.7,-1.4 -2.3,-0.9 -4.1,-2.2 -5.4,-3.9 -1.3,-1.7 -2,-3.7 -2,-6.1 h 3.8 c 0,2.5 1,4.5 3,6 2,1.4 4.8,2.2 8.2,2.2 3,0 5.5,-0.6 7.3,-1.8 2.1,-1.4 3,-3 3,-4.9 z"
         class="st0"
         inkscape:connector-curvature="0"
         style="fill:#ffffff" />
      <path
         id="path32"
         d="m 292.3,323.6 h -4.8 v -11.2 l -4.1,0.8 v -3.5 l 8.5,-2.6 h 0.4 z"
         class="st0"
         inkscape:connector-curvature="0"
         style="fill:#ffffff" />
      <path
         id="path34"
         d="m 303.6,323.6 h -4.8 v -11.2 l -4.1,0.8 v -3.5 l 8.5,-2.6 h 0.4 z"
         class="st0"
         inkscape:connector-curvature="0"
         style="fill:#ffffff" />
      <path
         id="path36"
         d="m 313.5,309.1 h -2.6 v 6.4 h -2.4 v -6.4 h -2.6 v -1.8 h 7.6 z"
         class="st0"
         inkscape:connector-curvature="0"
         style="fill:#ffffff" />
      <path
         id="path38"
         d="m 321.9,315.6 h -2.4 v -3.1 h -2.8 v 3.1 h -2.4 v -8.3 h 2.4 v 3.3 h 2.8 v -3.3 h 2.4 z"
         class="st0"
         inkscape:connector-curvature="0"
         style="fill:#ffffff" />
      <path
         id="path40"
         d="m 342.2,316.9 h -6.5 v 3 h 7.7 v 3.7 H 330.9 V 307 h 12.6 v 3.7 h -7.8 v 2.5 h 6.5 z"
         class="st0"
         inkscape:connector-curvature="0"
         style="fill:#ffffff" />
      <path
         id="path42"
         d="M 344.8,323.6 V 307 h 5.9 c 1.6,0 3,0.3 4.3,1 1.3,0.7 2.3,1.6 3,2.9 0.7,1.2 1.1,2.6 1.1,4.1 v 0.6 c 0,1.5 -0.4,2.8 -1.1,4.1 -0.7,1.2 -1.7,2.2 -2.9,2.9 -1.3,0.7 -2.6,1 -4.2,1.1 h -6.1 z m 4.8,-12.9 v 9.2 h 1.3 c 1.2,0 2,-0.3 2.6,-0.9 0.5,-0.6 0.8,-1.6 0.8,-3.1 V 315 c 0,-1.6 -0.3,-2.6 -0.8,-3.3 -0.5,-0.6 -1.4,-1 -2.5,-1 z"
         class="st0"
         inkscape:connector-curvature="0"
         style="fill:#ffffff" />
      <path
         id="path44"
         d="m 366,323.6 h -4.8 V 307 h 4.8 z"
         class="st0"
         inkscape:connector-curvature="0"
         style="fill:#ffffff" />
      <path
         id="path46"
         d="m 383.1,310.7 h -5.3 v 12.9 H 373 v -12.9 h -5.1 V 307 h 15.2 z"
         class="st0"
         inkscape:connector-curvature="0"
         style="fill:#ffffff" />
      <path
         id="path48"
         d="M 389.8,323.6 H 385 V 307 h 4.8 z"
         class="st0"
         inkscape:connector-curvature="0"
         style="fill:#ffffff" />
      <path
         id="path50"
         d="m 407.9,315.6 c 0,1.6 -0.3,3.1 -1,4.3 -0.7,1.3 -1.6,2.2 -2.8,2.9 -1.2,0.7 -2.6,1 -4.1,1 -1.6,0 -2.9,-0.3 -4.1,-1 -1.2,-0.7 -2.2,-1.6 -2.8,-2.9 -0.7,-1.3 -1,-2.7 -1,-4.3 V 315 c 0,-1.6 0.3,-3.1 1,-4.3 0.7,-1.2 1.6,-2.2 2.8,-2.9 1.2,-0.7 2.6,-1 4.2,-1 1.5,0 2.9,0.3 4.1,1 1.2,0.7 2.2,1.6 2.8,2.9 0.7,1.2 1,2.6 1,4.2 v 0.7 z m -4.8,-0.6 c 0,-1.5 -0.3,-2.6 -0.8,-3.4 -0.5,-0.8 -1.3,-1.2 -2.3,-1.2 -2.1,0 -3.1,1.5 -3.1,4.6 v 0.5 c 0,1.4 0.3,2.5 0.8,3.4 0.5,0.8 1.3,1.2 2.4,1.2 0.9,0 1.7,-0.4 2.2,-1.2 0.5,-0.8 0.8,-1.9 0.9,-3.3 V 315 Z"
         class="st0"
         inkscape:connector-curvature="0"
         style="fill:#ffffff" />
      <path
         id="path52"
         d="m 424.9,323.6 h -4.8 l -5.6,-9.6 v 9.6 h -4.8 V 307 h 4.8 l 5.6,9.6 V 307 h 4.8 z"
         class="st0"
         inkscape:connector-curvature="0"
         style="fill:#ffffff" />
      <path
         id="path54"
         d="m 444,316.5 h -8.5 v -3.7 h 8.5 z"
         class="st0"
         inkscape:connector-curvature="0"
         style="fill:#ffffff" />
      <path
         id="path56"
         d="m 459.6,318.4 v 5.2 h -4.8 V 307 h 7.2 c 1.4,0 2.6,0.2 3.7,0.7 1.1,0.5 1.9,1.2 2.5,2.1 0.6,0.9 0.9,1.9 0.9,3.1 0,1.6 -0.6,2.9 -1.9,3.9 -1.3,1 -2.9,1.5 -5,1.6 z m 0,-3.7 h 2.4 c 0.8,0 1.4,-0.2 1.7,-0.5 0.4,-0.3 0.6,-0.7 0.6,-1.2 0,-0.7 -0.2,-1.2 -0.6,-1.6 -0.4,-0.4 -1,-0.6 -1.7,-0.6 h -2.4 z"
         class="st0"
         inkscape:connector-curvature="0"
         style="fill:#ffffff" />
      <path
         id="path58"
         d="m 481.6,320.7 h -5.9 l -1,2.9 h -4.8 l 6.4,-16.6 h 4.6 l 6.5,16.6 h -4.8 z m -4.8,-3.3 h 3.7 l -1.8,-5.1 -0.1,-0.3 -0.1,0.3 z"
         class="st0"
         inkscape:connector-curvature="0"
         style="fill:#ffffff" />
      <path
         id="path60"
         d="m 495.1,318.1 h -1.9 v 5.5 h -4.8 V 307 h 7.3 c 2.2,0 3.8,0.4 5,1.3 1.2,0.9 1.8,2.1 1.8,3.6 0,1.2 -0.2,2.2 -0.7,3 -0.5,0.8 -1.2,1.4 -2.3,1.9 l 3.6,6.6 v 0.2 H 498 Z m -1.9,-3.7 h 2.5 c 1.4,0 2.1,-0.6 2.1,-1.9 0,-1.2 -0.7,-1.8 -2.2,-1.8 h -2.4 z"
         class="st0"
         inkscape:connector-curvature="0"
         style="fill:#ffffff" />
      <path
         id="path62"
         d="m 510.1,323.6 h -4.8 V 307 h 4.8 z"
         class="st0"
         inkscape:connector-curvature="0"
         style="fill:#ffffff" />
      <path
         id="path64"
         d="m 521.9,319.1 c 0,-0.5 -0.2,-0.9 -0.7,-1.2 -0.4,-0.3 -1.2,-0.6 -2.3,-0.8 -1.1,-0.3 -2,-0.5 -2.8,-0.8 -0.7,-0.3 -1.4,-0.6 -1.8,-1 -0.4,-0.4 -0.8,-0.9 -1.1,-1.4 -0.2,-0.5 -0.3,-1.2 -0.3,-2 0,-1 0.3,-1.8 0.8,-2.6 0.6,-0.8 1.3,-1.4 2.3,-1.8 1,-0.4 2.1,-0.6 3.3,-0.6 2.2,0 3.9,0.5 5.2,1.4 1.3,0.9 1.9,2.2 1.9,3.8 h -4.8 c 0,-0.5 -0.2,-1 -0.6,-1.3 -0.4,-0.4 -1,-0.6 -1.6,-0.6 -0.6,0 -1.1,0.1 -1.4,0.4 -0.4,0.3 -0.6,0.6 -0.6,1 0,0.4 0.2,0.8 0.6,1 0.4,0.3 1,0.5 2,0.8 2.4,0.5 4,1.2 5,2 1,0.9 1.4,2 1.4,3.5 0,1.5 -0.6,2.7 -1.8,3.6 -1.2,0.9 -2.8,1.3 -4.9,1.3 -1.4,0 -2.7,-0.2 -3.8,-0.7 -1.1,-0.4 -2,-1.1 -2.6,-1.9 -0.6,-0.8 -0.9,-1.8 -0.9,-3 h 4.8 c 0,0.8 0.2,1.4 0.7,1.8 0.4,0.3 1.2,0.5 2.2,0.5 0.6,0 1,-0.1 1.3,-0.4 0.4,-0.3 0.5,-0.6 0.5,-1 z"
         class="st0"
         inkscape:connector-curvature="0"
         style="fill:#ffffff" />
      <path
         id="path66"
         d="m 420.3,257.8 8,24.6 8,-24.6 h 14.8 v 38.4 h -11.2 v -5.9 l 1.1,-20.6 -9.1,26.5 h -7.2 l -9.1,-26.5 1.2,20.5 v 6 h -11.2 v -38.4 z"
         class="st0"
         inkscape:connector-curvature="0"
         style="fill:#ffffff" />
    </g>
  </g>
  <style
     id="style10"
     type="text/css">
	.st0{fill:#FFFFFF;}
</style>
</svg>
