<?xml version="1.0" encoding="UTF-8" standalone="no"?>
<svg
   viewBox="0 0 524.3 86.89"
   version="1.1"
   id="svg66"
   sodipodi:docname="FreeFEM_days_18th_edition_blue.svg"
   inkscape:version="1.2.1 (9c6d41e4, 2022-07-14)"
   xmlns:inkscape="http://www.inkscape.org/namespaces/inkscape"
   xmlns:sodipodi="http://sodipodi.sourceforge.net/DTD/sodipodi-0.dtd"
   xmlns="http://www.w3.org/2000/svg"
   xmlns:svg="http://www.w3.org/2000/svg"
   xmlns:rdf="http://www.w3.org/1999/02/22-rdf-syntax-ns#"
   xmlns:cc="http://creativecommons.org/ns#"
   xmlns:dc="http://purl.org/dc/elements/1.1/">
  <sodipodi:namedview
     id="namedview68"
     pagecolor="#ffffff"
     bordercolor="#666666"
     borderopacity="1.0"
     inkscape:pageshadow="2"
     inkscape:pageopacity="0.0"
     inkscape:pagecheckerboard="0"
     showgrid="false"
     inkscape:zoom="1"
     inkscape:cx="83.5"
     inkscape:cy="83"
     inkscape:window-width="1920"
     inkscape:window-height="1022"
     inkscape:window-x="1512"
     inkscape:window-y="30"
     inkscape:window-maximized="0"
     inkscape:current-layer="svg66"
     inkscape:showpageshadow="2"
     inkscape:deskcolor="#d1d1d1" />
  <defs
     id="defs4">
    <rect
       x="66.520508"
       y="100.08691"
       width="35.337891"
       height="36.084961"
       id="rect29432" />
    <style
       id="style2">.cls-1{fill:#00007f;}</style>
  </defs>
  <title
     id="title6">Asset 2</title>
  <path
     class="cls-1"
     d="M 35,31.74 H 14.48 V 50.59 H 0 V 0.69 H 36.67 V 11.82 H 14.48 V 20.6 H 35 Z"
     id="path8" />
  <path
     class="cls-1"
     d="m 61.34,34.05 h -5.7 V 50.59 H 41.16 V 0.69 h 22.06 q 9.78,0 15.21,3.91 a 12.7,12.7 0 0 1 5.48,11 17,17 0 0 1 -2.1,8.91 15.59,15.59 0 0 1 -7,5.78 L 85.63,50 v 0.56 H 70 Z m -5.7,-11.13 h 7.58 q 6.25,0 6.26,-5.66 0,-5.43 -6.68,-5.44 h -7.16 z"
     id="path10" />
  <path
     class="cls-1"
     d="m 125.34,30.37 h -19.62 v 9.08 H 129 V 50.59 H 91.24 V 0.69 h 38 v 11.13 h -23.52 v 7.41 h 19.62 z"
     id="path12" />
  <path
     class="cls-1"
     d="m 167.36,30.37 h -19.62 v 9.08 H 171 V 50.59 H 133.26 V 0.69 h 38 v 11.13 h -23.52 v 7.41 h 19.62 z"
     id="path14" />
  <path
     class="cls-1"
     d="M 210.28,31.74 H 189.76 V 50.59 H 175.28 V 0.69 H 212 v 11.13 h -22.24 v 8.78 h 20.52 z"
     id="path16" />
  <path
     class="cls-1"
     d="m 250.54,30.37 h -19.62 v 9.08 h 23.26 V 50.59 H 216.45 V 0.69 h 38 v 11.13 h -23.53 v 7.41 h 19.62 z"
     id="path18" />
  <path
     class="cls-1"
     d="M 277.61,0.69 288,32.51 298.43,0.69 h 19.23 v 49.9 H 303.1 v -7.71 l 1.46,-26.69 -11.87,34.4 h -9.34 L 271.49,16.23 273,42.88 v 7.71 H 258.47 V 0.69 Z"
     id="path20" />
  <path
     class="cls-1"
     d="M 349.62,50.59 V 0.69 h 15.16 a 24.53,24.53 0 0 1 11.83,2.82 20.43,20.43 0 0 1 8.16,8 23.87,23.87 0 0 1 3,11.63 v 4.66 a 24,24 0 0 1 -2.85,11.8 20,20 0 0 1 -8.1,8 25.19,25.19 0 0 1 -12,3 z m 5.1,-45.45 v 41.12 h 9.76 q 8.31,0 13.26,-5 4.95,-5 4.95,-13.7 V 23.5 q 0,-8.35 -4.84,-13.35 -4.84,-5 -13.2,-5 z"
     id="path22" />
  <path
     class="cls-1"
     d="M 428.18,37.27 H 404 l -5.31,13.32 h -5.32 l 20.29,-49.9 h 4.92 l 20.14,49.9 h -5.27 z M 405.69,32.9 h 20.73 L 416.1,6.81 Z"
     id="path24" />
  <path
     class="cls-1"
     d="M 459.62,27.93 475.51,0.69 h 5.87 L 462.15,32.47 V 50.59 H 457 V 32.25 L 437.9,0.69 h 5.87 z"
     id="path26" />
  <path
     class="cls-1"
     d="m 519.12,38.21 a 7.53,7.53 0 0 0 -2.83,-6.13 q -2.82,-2.31 -10.52,-4.26 A 52.16,52.16 0 0 1 494.44,23.9 14.91,14.91 0 0 1 489,19.3 10.87,10.87 0 0 1 487.22,13.06 11.14,11.14 0 0 1 492.27,3.64 Q 497.36,0 505.45,0 q 8.09,0 13.33,4.22 A 13.34,13.34 0 0 1 524,15 h -5.14 a 9.39,9.39 0 0 0 -3.69,-7.76 q -3.68,-2.91 -9.72,-2.91 -6.04,0 -9.51,2.4 a 7.25,7.25 0 0 0 -3.59,6.27 6.88,6.88 0 0 0 3.12,5.81 q 3.13,2.25 10.39,4.09 a 49.85,49.85 0 0 1 11,3.85 15.41,15.41 0 0 1 5.59,4.82 11.56,11.56 0 0 1 1.88,6.58 11.06,11.06 0 0 1 -5.16,9.55 q -5.16,3.56 -13.43,3.55 a 27.71,27.71 0 0 1 -10.28,-1.82 16.62,16.62 0 0 1 -7.26,-5.22 12.86,12.86 0 0 1 -2.63,-8.12 h 5.14 a 9.27,9.27 0 0 0 4,8 q 4,2.9 11,2.89 6.07,0 9.75,-2.42 a 7.33,7.33 0 0 0 3.66,-6.35 z"
     id="path28" />
  <path
     class="cls-1"
     d="m 144.17,68.15 h -4 v 9.79 h -3.67 v -9.79 h -3.9 v -2.82 h 11.57 z"
     id="path34" />
  <path
     class="cls-1"
     d="M 156.94,77.94 H 153.3 V 73.18 H 149 v 4.76 h -3.66 V 65.33 H 149 v 5 h 4.27 v -5 h 3.64 z"
     id="path36" />
  <path
     class="cls-1"
     d="m 183.55,77.83 h -8.5 v 3.93 h 10.08 v 4.83 H 168.78 V 65 h 16.44 v 4.8 H 175.05 V 73 h 8.5 z"
     id="path38" />
  <path
     class="cls-1"
     d="M 187,86.59 V 65 h 7.74 a 11.57,11.57 0 0 1 5.58,1.35 9.76,9.76 0 0 1 3.92,3.75 10.34,10.34 0 0 1 1.41,5.33 v 0.76 a 10.49,10.49 0 0 1 -1.37,5.3 9.86,9.86 0 0 1 -3.83,3.75 11.07,11.07 0 0 1 -5.45,1.35 z m 6.27,-16.79 v 12 h 1.65 a 4.21,4.21 0 0 0 3.34,-1.16 6.41,6.41 0 0 0 1.08,-4 v -1.27 c 0,-2 -0.34,-3.45 -1,-4.28 A 4.21,4.21 0 0 0 195,69.8 Z"
     id="path40" />
  <path
     class="cls-1"
     d="m 214.72,86.59 h -6.25 V 65 h 6.25 z"
     id="path42" />
  <path
     class="cls-1"
     d="m 237,69.8 h -6.88 v 16.79 h -6.29 V 69.8 h -6.68 V 65 H 237 Z"
     id="path44" />
  <path
     class="cls-1"
     d="m 245.78,86.59 h -6.25 V 65 h 6.25 z"
     id="path46" />
  <path
     class="cls-1"
     d="m 269.38,76.16 a 11.81,11.81 0 0 1 -1.3,5.63 9.15,9.15 0 0 1 -3.69,3.78 10.84,10.84 0 0 1 -5.39,1.32 11.17,11.17 0 0 1 -5.42,-1.3 9.1,9.1 0 0 1 -3.69,-3.76 11.75,11.75 0 0 1 -1.32,-5.65 v -0.76 a 12,12 0 0 1 1.28,-5.62 9.06,9.06 0 0 1 3.7,-3.8 11.67,11.67 0 0 1 10.8,0 9.26,9.26 0 0 1 3.65,3.73 11.59,11.59 0 0 1 1.34,5.5 z M 263.07,75.4 A 7.69,7.69 0 0 0 262,71 3.47,3.47 0 0 0 259,69.45 c -2.72,0 -4.08,2 -4.08,6.07 v 0.65 a 8.07,8.07 0 0 0 1,4.38 3.44,3.44 0 0 0 3.1,1.6 3.38,3.38 0 0 0 2.98,-1.57 7.54,7.54 0 0 0 1.11,-4.27 z"
     id="path48" />
  <path
     class="cls-1"
     d="m 291.61,86.59 h -6.25 L 278.07,74 V 86.59 H 271.8 V 65 h 6.27 l 7.29,12.58 V 65 h 6.25 z"
     id="path50" />
  <path
     class="cls-1"
     d="M 316.55,77.35 H 305.4 v -4.83 h 11.15 z"
     id="path52" />
  <path
     class="cls-1"
     d="m 336.9,79.82 v 6.77 h -6.27 V 65 h 9.43 a 11.31,11.31 0 0 1 4.82,1 7.6,7.6 0 0 1 3.26,2.74 7.18,7.18 0 0 1 1.16,4 6.2,6.2 0 0 1 -2.46,5.08 10.38,10.38 0 0 1 -6.5,2 z m 0,-4.83 h 3.16 a 3.29,3.29 0 0 0 2.25,-0.65 2.06,2.06 0 0 0 0.74,-1.61 3,3 0 0 0 -0.79,-2.11 2.9,2.9 0 0 0 -2.2,-0.82 h -3.16 z"
     id="path54" />
  <path
     class="cls-1"
     d="m 365.63,82.8 h -7.74 l -1.28,3.79 h -6.27 L 358.71,65 h 6 l 8.53,21.62 H 367 Z m -6.31,-4.26 h 4.8 l -2.35,-6.68 -0.1,-0.41 -0.07,0.37 z"
     id="path56" />
  <path
     class="cls-1"
     d="m 383.27,79.43 h -2.47 v 7.16 h -6.27 V 65 h 9.56 a 11.2,11.2 0 0 1 6.59,1.7 5.5,5.5 0 0 1 2.37,4.74 7.33,7.33 0 0 1 -0.91,3.86 6.75,6.75 0 0 1 -3,2.5 l 4.69,8.58 v 0.24 H 387 Z M 380.8,74.6 h 3.29 c 1.8,0 2.71,-0.81 2.71,-2.45 0,-1.64 -1,-2.35 -2.9,-2.35 h -3.1 z"
     id="path58" />
  <path
     class="cls-1"
     d="m 402.9,86.59 h -6.25 V 65 h 6.25 z"
     id="path60" />
  <path
     class="cls-1"
     d="m 418.28,80.68 a 1.82,1.82 0 0 0 -0.85,-1.57 9.22,9.22 0 0 0 -3,-1.09 29.39,29.39 0 0 1 -3.6,-1.06 8.43,8.43 0 0 1 -2.41,-1.33 4.69,4.69 0 0 1 -1.42,-1.84 6.77,6.77 0 0 1 -0.44,-2.6 5.62,5.62 0 0 1 1.08,-3.37 7,7 0 0 1 3,-2.32 10.83,10.83 0 0 1 4.29,-0.82 11.2,11.2 0 0 1 6.74,1.82 5.83,5.83 0 0 1 2.5,5 H 418 a 2.23,2.23 0 0 0 -0.83,-1.73 3.43,3.43 0 0 0 -4,-0.16 1.66,1.66 0 0 0 -0.72,1.33 1.55,1.55 0 0 0 0.73,1.34 9,9 0 0 0 2.59,1 q 4.62,1 6.51,2.64 a 5.88,5.88 0 0 1 1.88,4.61 5.55,5.55 0 0 1 -2.32,4.69 10.54,10.54 0 0 1 -6.37,1.72 13.43,13.43 0 0 1 -5,-0.89 7.45,7.45 0 0 1 -3.4,-2.52 6.45,6.45 0 0 1 -1.2,-3.92 h 6.29 a 2.75,2.75 0 0 0 0.87,2.32 4.81,4.81 0 0 0 2.88,0.66 2.77,2.77 0 0 0 1.76,-0.5 1.67,1.67 0 0 0 0.61,-1.41 z"
     id="path62" />
  <metadata
     id="metadata37603">
    <rdf:RDF>
      <cc:Work
         rdf:about="">
        <dc:title>Asset 2</dc:title>
      </cc:Work>
    </rdf:RDF>
  </metadata>
  <text
     xml:space="preserve"
     style="font-style:normal;font-variant:normal;font-weight:normal;font-stretch:normal;font-size:29.3333px;line-height:1.25;font-family:Montserrat;-inkscape-font-specification:Montserrat;letter-spacing:0px;word-spacing:0px;fill:#000000;fill-opacity:1;stroke:none"
     x="96.640617"
     y="86.751953"
     id="text6092"><tspan
       sodipodi:role="line"
       id="tspan6090"
       x="96.640617"
       y="86.751953"
       style="font-style:normal;font-variant:normal;font-weight:900;font-stretch:normal;font-size:29.3333px;font-family:Roboto;-inkscape-font-specification:'Roboto Heavy';fill:#000080;fill-opacity:1">18</tspan></text>
</svg>
