<svg xmlns="http://www.w3.org/2000/svg" viewBox="0 0 524.3 86.89"><defs><style>.cls-1{fill:#fff;}</style></defs><title>Asset 4</title><g id="Layer_2" data-name="Layer 2"><g id="Calque_1" data-name="Calque 1"><path class="cls-1" d="M35,31.74H14.48V50.59H0V.69H36.67V11.82H14.48V20.6H35Z"/><path class="cls-1" d="M61.34,34.05h-5.7V50.59H41.16V.69H63.22Q73,.69,78.43,4.6a12.7,12.7,0,0,1,5.48,11,17,17,0,0,1-2.1,8.91,15.59,15.59,0,0,1-7,5.78L85.63,50v.56H70Zm-5.7-11.13h7.58q6.25,0,6.26-5.66,0-5.43-6.68-5.44H55.64Z"/><path class="cls-1" d="M125.34,30.37H105.72v9.08H129V50.59H91.24V.69h38V11.82H105.72v7.41h19.62Z"/><path class="cls-1" d="M167.36,30.37H147.74v9.08H171V50.59H133.26V.69h38V11.82H147.74v7.41h19.62Z"/><path class="cls-1" d="M210.28,31.74H189.76V50.59H175.28V.69H212V11.82H189.76V20.6h20.52Z"/><path class="cls-1" d="M250.54,30.37H230.92v9.08h23.26V50.59H216.45V.69h38V11.82H230.92v7.41h19.62Z"/><path class="cls-1" d="M277.61.69,288,32.51,298.43.69h19.23v49.9H303.1V42.88l1.46-26.69-11.87,34.4h-9.34L271.49,16.23,273,42.88v7.71H258.47V.69Z"/><path class="cls-1" d="M349.62,50.59V.69h15.16a24.53,24.53,0,0,1,11.83,2.82,20.43,20.43,0,0,1,8.16,8,23.87,23.87,0,0,1,3,11.63V27.8a24,24,0,0,1-2.85,11.8,20,20,0,0,1-8.1,8,25.19,25.19,0,0,1-12,3Zm5.1-45.45V46.26h9.76q8.31,0,13.26-5t4.95-13.7V23.5q0-8.35-4.84-13.35t-13.2-5Z"/><path class="cls-1" d="M428.18,37.27H404l-5.31,13.32h-5.32L413.66.69h4.92l20.14,49.9h-5.27ZM405.69,32.9h20.73L416.1,6.81Z"/><path class="cls-1" d="M459.62,27.93,475.51.69h5.87L462.15,32.47V50.59H457V32.25L437.9.69h5.87Z"/><path class="cls-1" d="M519.12,38.21a7.53,7.53,0,0,0-2.83-6.13q-2.82-2.31-10.52-4.26a52.16,52.16,0,0,1-11.33-3.92A14.91,14.91,0,0,1,489,19.3a10.87,10.87,0,0,1-1.78-6.24,11.14,11.14,0,0,1,5.05-9.42Q497.36,0,505.45,0t13.33,4.22A13.34,13.34,0,0,1,524,15h-5.14a9.39,9.39,0,0,0-3.69-7.76q-3.68-2.91-9.72-2.91t-9.51,2.4A7.25,7.25,0,0,0,492.35,13a6.88,6.88,0,0,0,3.12,5.81q3.13,2.25,10.39,4.09a49.85,49.85,0,0,1,11,3.85,15.41,15.41,0,0,1,5.59,4.82,11.56,11.56,0,0,1,1.88,6.58,11.06,11.06,0,0,1-5.16,9.55q-5.16,3.56-13.43,3.55a27.71,27.71,0,0,1-10.28-1.82,16.62,16.62,0,0,1-7.26-5.22,12.86,12.86,0,0,1-2.63-8.12h5.14a9.27,9.27,0,0,0,4,8q4,2.9,11,2.89,6.07,0,9.75-2.42A7.33,7.33,0,0,0,519.12,38.21Z"/><path class="cls-1" d="M112.57,86.59h-6.23V72l-5.4,1.08V68.52l11.11-3.46h.52Z"/><path class="cls-1" d="M133.13,86.59H114.34V82.93l9.15-7.34a11.47,11.47,0,0,0,2-2.2,3.35,3.35,0,0,0,.53-1.74c0-1.47-.94-2.21-2.82-2.21a3,3,0,0,0-2.14.77,2.7,2.7,0,0,0-.8,2H114a6.75,6.75,0,0,1,2.54-5.47,10.2,10.2,0,0,1,6.69-2.08q4.48,0,6.74,1.69a5.58,5.58,0,0,1,2.26,4.71,6.52,6.52,0,0,1-.91,3.36,13.67,13.67,0,0,1-3.1,3.3l-2.6,2-2.1,2h9.61Z"/><path class="cls-1" d="M144.17,68.15h-4v9.79h-3.67V68.15H132.6V65.33h11.57Z"/><path class="cls-1" d="M156.94,77.94H153.3V73.18H149v4.76h-3.66V65.33H149v5h4.27v-5h3.64Z"/><path class="cls-1" d="M183.55,77.83h-8.5v3.93h10.08v4.83H168.78V65h16.44V69.8H175.05V73h8.5Z"/><path class="cls-1" d="M187,86.59V65h7.74a11.57,11.57,0,0,1,5.58,1.35,9.76,9.76,0,0,1,3.92,3.75,10.34,10.34,0,0,1,1.41,5.33v.76a10.49,10.49,0,0,1-1.37,5.3,9.86,9.86,0,0,1-3.83,3.75A11.07,11.07,0,0,1,195,86.59Zm6.27-16.79v12h1.65a4.21,4.21,0,0,0,3.34-1.16,6.41,6.41,0,0,0,1.08-4V75.37c0-2-.34-3.45-1-4.28A4.21,4.21,0,0,0,195,69.8Z"/><path class="cls-1" d="M214.72,86.59h-6.25V65h6.25Z"/><path class="cls-1" d="M237,69.8h-6.88V86.59h-6.29V69.8h-6.68V65H237Z"/><path class="cls-1" d="M245.78,86.59h-6.25V65h6.25Z"/><path class="cls-1" d="M269.38,76.16a11.81,11.81,0,0,1-1.3,5.63,9.15,9.15,0,0,1-3.69,3.78A10.84,10.84,0,0,1,259,86.89a11.17,11.17,0,0,1-5.42-1.3,9.1,9.1,0,0,1-3.69-3.76,11.75,11.75,0,0,1-1.32-5.65v-.76a12,12,0,0,1,1.28-5.62A9.06,9.06,0,0,1,253.55,66a11.67,11.67,0,0,1,10.8,0A9.26,9.26,0,0,1,268,69.73a11.59,11.59,0,0,1,1.34,5.5Zm-6.31-.76A7.69,7.69,0,0,0,262,71a3.47,3.47,0,0,0-3-1.55c-2.72,0-4.08,2-4.08,6.07v.65a8.07,8.07,0,0,0,1,4.38,3.44,3.44,0,0,0,3.1,1.6A3.38,3.38,0,0,0,262,80.58a7.54,7.54,0,0,0,1.11-4.27Z"/><path class="cls-1" d="M291.61,86.59h-6.25L278.07,74V86.59H271.8V65h6.27l7.29,12.58V65h6.25Z"/><path class="cls-1" d="M316.55,77.35H305.4V72.52h11.15Z"/><path class="cls-1" d="M336.9,79.82v6.77h-6.27V65h9.43a11.31,11.31,0,0,1,4.82,1,7.6,7.6,0,0,1,3.26,2.74,7.18,7.18,0,0,1,1.16,4,6.2,6.2,0,0,1-2.46,5.08,10.38,10.38,0,0,1-6.5,2Zm0-4.83h3.16a3.29,3.29,0,0,0,2.25-.65,2.06,2.06,0,0,0,.74-1.61,3,3,0,0,0-.79-2.11,2.9,2.9,0,0,0-2.2-.82H336.9Z"/><path class="cls-1" d="M365.63,82.8h-7.74l-1.28,3.79h-6.27L358.71,65h6l8.53,21.62H367Zm-6.31-4.26h4.8l-2.35-6.68-.1-.41-.07.37Z"/><path class="cls-1" d="M383.27,79.43H380.8v7.16h-6.27V65h9.56a11.2,11.2,0,0,1,6.59,1.7,5.5,5.5,0,0,1,2.37,4.74,7.33,7.33,0,0,1-.91,3.86,6.75,6.75,0,0,1-3,2.5l4.69,8.58v.24H387ZM380.8,74.6h3.29c1.8,0,2.71-.81,2.71-2.45s-1-2.35-2.9-2.35h-3.1Z"/><path class="cls-1" d="M402.9,86.59h-6.25V65h6.25Z"/><path class="cls-1" d="M418.28,80.68a1.82,1.82,0,0,0-.85-1.57,9.22,9.22,0,0,0-3-1.09,29.39,29.39,0,0,1-3.6-1.06,8.43,8.43,0,0,1-2.41-1.33A4.69,4.69,0,0,1,407,73.79a6.77,6.77,0,0,1-.44-2.6,5.62,5.62,0,0,1,1.08-3.37,7,7,0,0,1,3-2.32,10.83,10.83,0,0,1,4.29-.82,11.2,11.2,0,0,1,6.74,1.82,5.83,5.83,0,0,1,2.5,5H418a2.23,2.23,0,0,0-.83-1.73,3.43,3.43,0,0,0-4-.16,1.66,1.66,0,0,0-.72,1.33,1.55,1.55,0,0,0,.73,1.34,9,9,0,0,0,2.59,1q4.62,1,6.51,2.64a5.88,5.88,0,0,1,1.88,4.61,5.55,5.55,0,0,1-2.32,4.69,10.54,10.54,0,0,1-6.37,1.72,13.43,13.43,0,0,1-5-.89,7.45,7.45,0,0,1-3.4-2.52,6.45,6.45,0,0,1-1.2-3.92h6.29a2.75,2.75,0,0,0,.87,2.32,4.81,4.81,0,0,0,2.88.66,2.77,2.77,0,0,0,1.76-.5A1.67,1.67,0,0,0,418.28,80.68Z"/></g></g></svg>