<svg xmlns="http://www.w3.org/2000/svg" viewBox="0 0 309.44 135.55"><defs><style>.cls-1{fill:none;}.cls-2{fill:#e63312;}</style></defs><title>inria_logo_eng_rouge_rvb</title><g id="Calque_2" data-name="Calque 2"><g id="Calque_1-2" data-name="Calque 1"><rect class="cls-1" x="86.94" y="-86.94" width="135.55" height="309.44" transform="translate(222.5 -86.94) rotate(90)"/><path class="cls-2" d="M69.71,23.71a59.52,59.52,0,0,0,11.45-9.09c2.8-2.84-9.52-1.57-12.49,1a83.93,83.93,0,0,0-9.47,9.25C57.45,26.87,65.87,26,69.71,23.71ZM295,87.63c2.19,1.31,2.09-5.53-2.32-8.28-15.79-9.84-59,7.31-75.34,9.26-3.07.37-4.19-.41-3.46-2.49,1.39-4,6.86-11.4,8-13.94s.9-10.78-11.45-10.78c-10.09,0-19.35,4.69-25.85,10.58-6.2,5.29-18.21,15.75-25.6,15.75-7.65,0,14.76-23.12,16-24.29,3.33-3.13-7.17-2.35-11.59,1-1.76,1.34-8.81,8.88-13.22,16.18-12.75,8.81-25.44,10.86-19.4,3.53,3.21-3.9,8.64-9.13,12.38-13.27,5.21-5.78,4.27-9.59-7.24-9.59-15.41,0-17,1.34-25.74,11.52-1.61,1.89-.78,6.64.89,5,10.43-10.32,10.19-9.48,24-9.48-2.22,2.36-6.18,4.71-12.89,13.23-6,7.6-2.07,13.74,6.43,13.74,4.7,0,11.71-2.2,18.12-6.72-.77,4,.82,6.79,6.87,6.79,7,0,15-4.17,21.64-8.8-.83,5,1.76,8.8,9.18,8.8,5.71,0,12.35-2.24,19.21-8.19,0,4.55,3.17,8.16,9.14,8.16C227.32,95.34,277.57,77.09,295,87.63Zm-106.73,1.2c-9.54,0,9.56-21.8,22-21.8C217.78,67,197.52,88.83,188.32,88.83Zm-7.57-33.72A98.21,98.21,0,0,0,195.5,43.49c2.8-2.84-9.52-1.58-12.49,1a122.05,122.05,0,0,0-11.5,11.14C169.76,57.63,176.91,57.42,180.75,55.11ZM105.44,78.33c-3.74,3.65-11.91,9.76-19.06,9.76-5.29,0,5.24-9.47,10.46-17.11,5-7.3.91-9.48-3.2-9.48-10.18,0-20.12,7.14-26.86,12.17,2-2.73,5.21-6.22,8.59-10.68,1.87-2.48-9.35-1.59-12.22,2.19-.92,1.2-1.92,2.54-3,4C50.4,80.86,35.68,88.75,28.46,88.75c-4,0-5.49-2.77-3-8,6-12.63,26.84-36.63,38.15-47.14,5.13-4.81-10.29-2.85-13.83.7C34.13,50.07,18.36,67.67,13.91,81.36c-2.46,7.57-.19,14.37,9.22,14.37,7.72,0,16.28-3.83,23.55-8.37L41.94,93.8c-2.05,2.78,8.35,1.76,10.54-1,8.22-10.52,28-23.46,33.48-23.46,5,0-12.24,12.92-12.08,20.83.2,10.39,24.26,4,32.43-6.67C107.59,81.81,106.59,77.21,105.44,78.33Z"/><path class="cls-2" d="M62,106v-1.82h1.82V106Zm.1,12.19v-9.79h1.62v9.79Z"/><path class="cls-2" d="M68.22,111.09v7.06H66.59v-9.79h1.54v1.37a5.36,5.36,0,0,1,3.56-1.56c1.82,0,2.81,1.21,2.81,3.3v6.69H72.89V111.7c0-1.39-.51-2-1.58-2A5,5,0,0,0,68.22,111.09Z"/><path class="cls-2" d="M81,118.15H79.44l-3.5-9.79h1.68l1.64,4.77,1,3,1-3,1.6-4.77h1.6Z"/><path class="cls-2" d="M89.65,118.35c-2.83,0-4.2-1.7-4.2-4.51v-1.19c0-2.71,1.44-4.49,4-4.49a3.46,3.46,0,0,1,3.7,3.74,8.74,8.74,0,0,1-.24,1.9H87.05v0c0,2,.77,3,2.63,3a7.18,7.18,0,0,0,2.89-.65l.5,1.35A8,8,0,0,1,89.65,118.35Zm-2.59-5.94h4.43a4.29,4.29,0,0,0,.06-.67,2,2,0,0,0-2.12-2.16C87.9,109.58,87.13,110.61,87.05,112.41Z"/><path class="cls-2" d="M96.93,111.09v7.06H95.3v-9.79h1.54v1.37a5.36,5.36,0,0,1,3.56-1.56c1.82,0,2.81,1.21,2.81,3.3v6.69H101.6V111.7c0-1.39-.51-2-1.58-2A5,5,0,0,0,96.93,111.09Z"/><path class="cls-2" d="M109,118.35c-2.14,0-2.77-1.42-2.77-3.23v-5.34h-1.7v-1.42h1.7v-2.73h1.62v2.73h3.21v1.42h-3.21v5.28c0,1.38.44,1.8,1.42,1.8a3.5,3.5,0,0,0,1.58-.4l.5,1.33A5.35,5.35,0,0,1,109,118.35Z"/><path class="cls-2" d="M120.61,113.84c0,2.81-1.5,4.51-4.16,4.51s-4.15-1.7-4.15-4.51v-1.19c0-2.73,1.48-4.49,4.15-4.49s4.16,1.76,4.16,4.49Zm-4.16-4.19c-1.58,0-2.47,1.13-2.47,3v1.19c0,2,.89,3,2.47,3s2.47-1.09,2.47-3v-1.19C118.93,110.77,118.06,109.64,116.46,109.64Z"/><path class="cls-2" d="M124.55,111.3v6.85h-1.62v-9.79h1.54v1.58a4.91,4.91,0,0,1,3.6-1.78v1.62A4.79,4.79,0,0,0,124.55,111.3Z"/><path class="cls-2" d="M133.93,115.56c0-.75-.4-1.17-1.66-1.48l-1.09-.28a2.78,2.78,0,0,1-2.39-2.81c0-1.5,1-2.83,3.3-2.83a7.25,7.25,0,0,1,3.13.73l-.51,1.37a6.49,6.49,0,0,0-2.61-.65c-1.11,0-1.72.42-1.72,1.29,0,.67.34,1.15,1.5,1.42l1.09.28c1.74.43,2.53,1.37,2.53,2.87s-.95,2.89-3.5,2.89a8.13,8.13,0,0,1-3.42-.75l.44-1.35a7.53,7.53,0,0,0,2.95.65C133.3,116.9,133.93,116.45,133.93,115.56Z"/><path class="cls-2" d="M143.72,109.78v8.37H142.1v-8.37h-1.7v-1.42h1.7v-1.62c0-1.82.83-3.42,3.15-3.42a6.15,6.15,0,0,1,2.41.51l-.46,1.37a5,5,0,0,0-1.76-.4c-1.11,0-1.72.57-1.72,1.92v1.64h3.2v1.42Z"/><path class="cls-2" d="M155.81,113.84c0,2.81-1.5,4.51-4.16,4.51s-4.16-1.7-4.16-4.51v-1.19c0-2.73,1.48-4.49,4.16-4.49s4.16,1.76,4.16,4.49Zm-4.16-4.19c-1.58,0-2.47,1.13-2.47,3v1.19c0,2,.89,3,2.47,3s2.47-1.09,2.47-3v-1.19C154.13,110.77,153.26,109.64,151.66,109.64Z"/><path class="cls-2" d="M159.73,111.3v6.85h-1.62v-9.79h1.54v1.58a4.91,4.91,0,0,1,3.6-1.78v1.62A4.79,4.79,0,0,0,159.73,111.3Z"/><path class="cls-2" d="M172.08,118.35c-2.14,0-2.77-1.42-2.77-3.23v-5.34h-1.7v-1.42h1.7v-2.73h1.62v2.73h3.21v1.42h-3.21v5.28c0,1.38.43,1.8,1.42,1.8a3.51,3.51,0,0,0,1.58-.4l.5,1.33A5.35,5.35,0,0,1,172.08,118.35Z"/><path class="cls-2" d="M177.56,111.09v7.06h-1.62V103.51h1.62v6.15a5.24,5.24,0,0,1,3.48-1.5c1.82,0,2.81,1.21,2.81,3.3v6.69h-1.62V111.7c0-1.39-.51-2-1.58-2A5,5,0,0,0,177.56,111.09Z"/><path class="cls-2" d="M190.28,118.35c-2.83,0-4.2-1.7-4.2-4.51v-1.19c0-2.71,1.45-4.49,4-4.49a3.46,3.46,0,0,1,3.7,3.74,8.74,8.74,0,0,1-.24,1.9h-5.84v0c0,2,.77,3,2.63,3a7.18,7.18,0,0,0,2.89-.65l.5,1.35A8,8,0,0,1,190.28,118.35Zm-2.59-5.94h4.43a4.17,4.17,0,0,0,.06-.67,2,2,0,0,0-2.12-2.16C188.54,109.58,187.77,110.61,187.69,112.41Z"/><path class="cls-2" d="M206.23,116.78a4.4,4.4,0,0,1-3.19,1.56c-2.08,0-3.25-1.66-3.25-4.51v-1.15c0-2.77,1.41-4.53,4.06-4.53a6.76,6.76,0,0,1,2.3.46v-5.1h1.62v14.64h-1.54Zm-2.81,0c.77,0,1.48-.28,2.73-1.48v-5.22a5.27,5.27,0,0,0-2.16-.47c-1.8,0-2.51,1.15-2.51,3v1.15C201.48,115.89,202.13,116.82,203.42,116.82Z"/><path class="cls-2" d="M210.54,106v-1.82h1.82V106Zm.1,12.19v-9.79h1.62v9.79Z"/><path class="cls-2" d="M218.56,122.56a8.27,8.27,0,0,1-4.25-1.17l.55-1.27a7.22,7.22,0,0,0,3.7,1c1.8,0,2.81-.61,2.81-1.6,0-.71-.46-1.11-1.5-1.11h-2.28c-1.72,0-2.43-1-2.43-2a3.11,3.11,0,0,1,.91-2,3.18,3.18,0,0,1-1.52-2.89,3.27,3.27,0,0,1,3.6-3.4h.34a3.85,3.85,0,0,1,1.27.2h3.52v1.44l-2.14-.3a2.67,2.67,0,0,1,.93,2.16,3.26,3.26,0,0,1-3.58,3.3h-.34a5.17,5.17,0,0,1-1-.1,1.91,1.91,0,0,0-.57,1.25c0,.5.34.79,1.11.79h2.22c1.9,0,3,.87,3,2.47C223,121.32,221.29,122.56,218.56,122.56Zm1.88-11a1.88,1.88,0,0,0-2-2h-.34a2,2,0,0,0,0,4h.34A1.87,1.87,0,0,0,220.44,111.56Z"/><path class="cls-2" d="M224.69,106v-1.82h1.82V106Zm.1,12.19v-9.79h1.62v9.79Z"/><path class="cls-2" d="M232.31,118.35c-2.14,0-2.77-1.42-2.77-3.23v-5.34h-1.7v-1.42h1.7v-2.73h1.62v2.73h3.21v1.42h-3.21v5.28c0,1.38.43,1.8,1.42,1.8a3.51,3.51,0,0,0,1.58-.4l.5,1.33A5.35,5.35,0,0,1,232.31,118.35Z"/><path class="cls-2" d="M241.11,116.8a4.88,4.88,0,0,1-3.34,1.54c-1.72,0-2.51-1.25-2.51-2.87s.79-2.81,3.23-2.81a16.47,16.47,0,0,1,2.45.24v-1.33c0-1.46-.65-1.92-1.9-1.92a7,7,0,0,0-2.83.69l-.51-1.35a8.07,8.07,0,0,1,3.42-.85c2.75,0,3.4,1.52,3.4,3.3v4.23c0,.61.18,1.07.89,1.07h.22v1.48h-.3A2.15,2.15,0,0,1,241.11,116.8Zm-3,.16c.67,0,1.52-.3,2.85-1.54v-1.25a15.74,15.74,0,0,0-2.37-.22c-1.21,0-1.7.5-1.7,1.5S237.29,117,238.08,117Z"/><path class="cls-2" d="M245.27,103.51h1.62V115.7c0,.71.16,1.07.85,1.07h.32v1.48h-.46c-1.74,0-2.33-1-2.33-2.47Z"/><path class="cls-2" d="M263.51,118.15h-1.88l-2.06-8-2.12,8h-1.88l-2.49-9.79h1.66l1,4.1.89,4.06,2.12-8.15h1.72l2.12,8.19.87-4.08,1-4.12H266Z"/><path class="cls-2" d="M275.48,113.84c0,2.81-1.5,4.51-4.15,4.51s-4.16-1.7-4.16-4.51v-1.19c0-2.73,1.48-4.49,4.16-4.49s4.15,1.76,4.15,4.49Zm-4.15-4.19c-1.58,0-2.47,1.13-2.47,3v1.19c0,2,.89,3,2.47,3s2.47-1.09,2.47-3v-1.19C273.8,110.77,272.93,109.64,271.33,109.64Z"/><path class="cls-2" d="M279.4,111.3v6.85h-1.62v-9.79h1.54v1.58a4.91,4.91,0,0,1,3.6-1.78v1.62A4.79,4.79,0,0,0,279.4,111.3Z"/><path class="cls-2" d="M284.37,103.51H286V115.7c0,.71.16,1.07.85,1.07h.32v1.48h-.46c-1.74,0-2.33-1-2.33-2.47Z"/><path class="cls-2" d="M294.91,116.78a4.4,4.4,0,0,1-3.19,1.56c-2.08,0-3.25-1.66-3.25-4.51v-1.15c0-2.77,1.41-4.53,4.06-4.53a6.76,6.76,0,0,1,2.3.46v-5.1h1.62v14.64h-1.54Zm-2.81,0c.77,0,1.48-.28,2.73-1.48v-5.22a5.27,5.27,0,0,0-2.16-.47c-1.8,0-2.51,1.15-2.51,3v1.15C290.16,115.89,290.82,116.82,292.1,116.82Z"/></g></g></svg>