<?xml version="1.0" encoding="utf-8"?>
<!-- Generator: Adobe Illustrator 21.0.0, SVG Export Plug-In . SVG Version: 6.00 Build 0)  -->
<svg version="1.1" id="Layer_1" xmlns="http://www.w3.org/2000/svg" xmlns:xlink="http://www.w3.org/1999/xlink" x="0px" y="0px"
	 viewBox="0 0 65 65" style="enable-background:new 0 0 65 65;" xml:space="preserve">
<style type="text/css">
	.st0{fill:#43CC62;}
	.st1{opacity:0.2;}
	.st2{fill:#231F20;}
	.st3{fill:#FFFFFF;}
</style>
<title>Artboard 122</title>
<g id="Layer_1-2">
	<circle class="st0" cx="32.5" cy="32.5" r="32"/>
	<g class="st1">
		<path class="st2" d="M54.6,21.8c-0.9-1.5-2.9-3.4-7.7-3.4c-1.8,0-3.6,0.2-5.4,0.6c-2-6.2-5.2-10-9-10s-7,3.9-9,10
			c-1.8-0.4-3.6-0.6-5.4-0.6c-4.8,0-6.8,1.8-7.7,3.4c-1.9,3.2-0.1,7.9,4.2,12.7c-4.3,4.8-6.1,9.5-4.2,12.8c0.9,1.5,2.9,3.3,7.7,3.3
			c1.8,0,3.6-0.2,5.4-0.6c2,6.2,5.2,10,9,10s7-3.9,9-10c1.8,0.4,3.6,0.6,5.4,0.6c4.8,0,6.8-1.8,7.7-3.3c1.9-3.2,0.1-7.9-4.2-12.7
			C54.7,29.7,56.5,25,54.6,21.8z M46.9,21.4c2.6,0,4.4,0.7,5.1,1.9s-0.3,5.3-3.7,9.1c-1.6-1.5-3.2-2.8-5-4.1c-0.2-2.1-0.5-4.2-1-6.3
			C43.8,21.6,45.4,21.4,46.9,21.4z M36.5,41.5l-4,2.1l-4-2.1l-3.9-2.4c-0.1-1.5-0.2-3-0.2-4.6s0.1-3.1,0.2-4.6l3.9-2.4l4-2.1l4,2.1
			l3.9,2.4c0.1,1.5,0.2,3,0.2,4.6s-0.1,3.1-0.2,4.6L36.5,41.5z M40,43c-0.2,1.2-0.4,2.3-0.6,3.3l-3.2-1.1l2-1.1L40,43z M28.9,45.2
			l-3.2,1.1c-0.3-1.1-0.5-2.2-0.6-3.3l1.9,1.1L28.9,45.2z M21.4,36.7l-2.6-2.2l2.6-2.2c0,0.7,0,1.5,0,2.2S21.4,36,21.4,36.7z M25,26
			c0.2-1.2,0.4-2.3,0.6-3.3l3.2,1.1l-2,1.1L25,26z M36.1,23.8l3.2-1.1c0.3,1.1,0.5,2.2,0.6,3.3L38,24.9L36.1,23.8z M43.6,32.3
			l2.6,2.2l-2.6,2.2c0-0.7,0-1.5,0-2.2S43.6,33,43.6,32.3z M32.5,12c2.1,0,4.4,2.9,6,7.8c-2,0.6-4.1,1.4-6,2.3c-1.9-0.9-4-1.7-6-2.3
			C28.1,14.9,30.4,12,32.5,12z M13,23.3c0.7-1.2,2.5-1.9,5.1-1.9c1.5,0,3.1,0.2,4.6,0.5c-0.5,2.1-0.8,4.2-1,6.3
			c-1.8,1.3-3.4,2.6-5,4.1C13.3,28.5,11.9,25.1,13,23.3z M18.1,47.6c-2.6,0-4.4-0.7-5.1-1.8s0.3-5.3,3.7-9.1c1.6,1.5,3.2,2.8,5,4.1
			c0.2,2.1,0.5,4.2,1,6.3C21.2,47.4,19.6,47.6,18.1,47.6z M32.5,57c-2.1,0-4.4-2.9-6-7.8c2-0.6,4.1-1.4,6-2.3c1.9,0.9,4,1.7,6,2.3
			C36.9,54.1,34.6,57,32.5,57z M52,45.8c-0.7,1.2-2.5,1.8-5.1,1.8c-1.5,0-3.1-0.2-4.6-0.5c0.5-2.1,0.8-4.2,1-6.3
			c1.8-1.3,3.4-2.6,5-4.1C51.7,40.5,53.1,43.9,52,45.8z"/>
		<circle class="st2" cx="32.5" cy="34.5" r="3"/>
	</g>
	<path class="st3" d="M32.5,58c-6.3,0-11.1-11-11.1-25.5S26.2,7,32.5,7s11.1,11,11.1,25.5S38.8,58,32.5,58z M32.5,10
		c-3.8,0-8.1,9.2-8.1,22.5S28.7,55,32.5,55s8.1-9.2,8.1-22.5S36.3,10,32.5,10z"/>
	<path class="st3" d="M18.1,48.6c-4.8,0-6.8-1.8-7.7-3.3c-3.1-5.5,4-15.1,16.6-22.4c7-4.1,14.5-6.5,19.9-6.5s6.8,1.8,7.7,3.4
		c3.2,5.5-3.9,15.1-16.5,22.4C31,46.2,23.6,48.6,18.1,48.6z M46.9,19.4c-4.9,0-11.8,2.3-18.4,6.1C17,32.1,11.1,40.4,13,43.8
		c0.7,1.2,2.5,1.8,5.1,1.8c4.9,0,11.8-2.3,18.4-6.1C48,32.9,53.9,24.6,52,21.3C51.3,20.1,49.5,19.4,46.9,19.4z"/>
	<path class="st3" d="M18.1,48.6c-4.8,0-6.8-1.8-7.7-3.3c-3.1-5.5,4-15.1,16.6-22.4c7-4.1,14.5-6.5,19.9-6.5s6.8,1.8,7.7,3.4
		c3.2,5.5-3.9,15.1-16.5,22.4C31,46.2,23.6,48.6,18.1,48.6z M46.9,19.4c-4.9,0-11.8,2.3-18.4,6.1C17,32.1,11.1,40.4,13,43.8
		c0.7,1.2,2.5,1.8,5.1,1.8c4.9,0,11.8-2.3,18.4-6.1C48,32.9,53.9,24.6,52,21.3C51.3,20.1,49.5,19.4,46.9,19.4z"/>
	<path class="st3" d="M46.9,48.6c-5.4,0-12.9-2.4-19.9-6.5C14.4,34.8,7.3,25.2,10.4,19.8c0.9-1.5,2.9-3.4,7.7-3.4s12.9,2.4,20,6.5
		c12.6,7.3,19.7,16.9,16.5,22.4C53.7,46.8,51.6,48.6,46.9,48.6z M18.1,19.4c-2.6,0-4.4,0.7-5.1,1.9c-1.9,3.3,4,11.6,15.4,18.3
		c6.6,3.8,13.5,6.1,18.4,6.1c2.6,0,4.4-0.7,5.1-1.8c1.9-3.3-4-11.6-15.4-18.3C30,21.7,23.1,19.4,18.1,19.4z"/>
	<circle class="st3" cx="32.5" cy="32.5" r="3"/>
</g>
</svg>
